<?xml version="1.0" encoding="UTF-8"?>
<svg version="1.1" xmlns="http://www.w3.org/2000/svg" width="512" height="512">
<path d="M0 0 C0.75870895 -0.00705963 1.51741791 -0.01411926 2.29911804 -0.02139282 C34.05441256 -0.24983212 34.05441256 -0.24983212 47.79296875 3.203125 C48.63666016 3.41243652 49.48035156 3.62174805 50.34960938 3.83740234 C74.45682661 9.97718208 97.17202825 19.72254552 116.79296875 35.203125 C117.33083008 35.62674316 117.86869141 36.05036133 118.42285156 36.48681641 C155.52456308 66.07693366 179.98995914 108.53813243 185.3828125 155.92578125 C188.10411125 185.84267896 184.93617429 218.52141121 171.796875 245.88671875 C169.34556605 253.98462263 172.79866789 263.61089587 174.49144173 271.72106171 C174.96286736 273.98427089 175.42763025 276.24875671 175.89048767 278.51373291 C177.20576267 284.94777089 178.52680779 291.38055845 179.86645508 297.80957031 C180.68912676 301.75998034 181.49909841 305.71282389 182.30135918 309.66742706 C182.60646212 311.15925759 182.91613802 312.65016153 183.23079109 314.14000702 C187.95902541 336.5501144 187.95902541 336.5501144 184.10546875 344.828125 C181.06156212 347.95429937 178.45462642 349.95296905 174.07246399 350.61268616 C165.36214242 350.56982567 157.25254641 349.20922735 148.77330589 347.3946209 C146.34031868 346.87428915 143.90436889 346.37057355 141.46711731 345.87062073 C136.30189724 344.80815259 131.14094311 343.725876 125.98046875 342.640625 C119.97600523 341.37811231 113.97002205 340.12404564 107.95943642 338.89097786 C105.57093771 338.39655144 103.18598756 337.8870639 100.80082703 337.3768158 C99.32725099 337.0726506 97.85352879 336.76919234 96.37963867 336.46655273 C95.10424728 336.19785873 93.8288559 335.92916473 92.51481628 335.65232849 C87.10183968 334.9990164 81.86200081 335.420153 76.8125 337.65625 C76.13405029 337.94346924 75.45560059 338.23068848 74.7565918 338.52661133 C74.04672119 338.83236084 73.33685059 339.13811035 72.60546875 339.453125 C65.83905693 342.2214294 59.09737549 344.34288368 51.98046875 346.015625 C50.74744019 346.30711426 50.74744019 346.30711426 49.48950195 346.60449219 C46.9308351 347.18102181 44.36782112 347.70386629 41.79296875 348.203125 C40.83874023 348.39076416 39.88451172 348.57840332 38.90136719 348.77172852 C29.48211294 350.43199399 20.20039761 350.5606347 10.66796875 350.515625 C9.43808228 350.51239227 9.43808228 350.51239227 8.18334961 350.50909424 C-3.83874307 350.45835202 -15.48800973 350.12500469 -27.20703125 347.203125 C-28.44066406 346.90510986 -28.44066406 346.90510986 -29.69921875 346.60107422 C-61.79659286 338.65411679 -89.46941518 323.12687994 -113.20703125 300.203125 C-114.068125 299.39359375 -114.92921875 298.5840625 -115.81640625 297.75 C-147.45298798 267.29242131 -164.63444606 222.29489094 -165.49023438 178.87011719 C-165.85459417 137.15092046 -152.85943259 95.0552007 -125.20703125 63.203125 C-124.52253906 62.4090625 -123.83804688 61.615 -123.1328125 60.796875 C-120.86544428 58.22420586 -118.55042946 55.70672372 -116.20703125 53.203125 C-115.32402344 52.254375 -114.44101563 51.305625 -113.53125 50.328125 C-85.07584552 20.44235762 -41.47392707 0.25789344 0 0 Z " fill="#000000" transform="translate(326.20703125,144.796875)"/>
<path d="M0 0 C0.84110321 0.00215515 1.68220642 0.0043103 2.54879761 0.00653076 C14.69648503 0.05651471 26.47258974 0.35051021 38.3125 3.3125 C39.12283691 3.50585938 39.93317383 3.69921875 40.76806641 3.8984375 C88.2354692 15.47280326 126.77241176 45.04045072 152.3125 86.3125 C158.3125 96.49214072 158.3125 96.49214072 158.3125 99.3125 C157.29603394 99.37195801 157.29603394 99.37195801 156.2590332 99.43261719 C117.90678921 101.77365291 80.21023832 110.7995508 48.3125 133.3125 C47.41917969 133.93511719 46.52585938 134.55773437 45.60546875 135.19921875 C-0.41651502 167.96172188 -30.94943829 215.56209671 -40.6875 271.3125 C-40.80609375 271.97830078 -40.9246875 272.64410156 -41.046875 273.33007812 C-44.49361158 293.66172067 -43.48667832 314.97037972 -40.6875 335.3125 C-40.31868013 338.97638094 -39.99464034 342.64298118 -39.6875 346.3125 C-49.29916531 344.16534743 -58.2499024 341.52559509 -67.28515625 337.58203125 C-73.54206471 335.24736391 -78.79742724 335.17968234 -85.25244141 336.57592773 C-85.97385315 336.72208527 -86.69526489 336.8682428 -87.4385376 337.01882935 C-88.99512427 337.33568116 -90.55064403 337.6578117 -92.10515213 337.98470879 C-94.57708686 338.50408299 -97.05166874 339.00852375 -99.5274353 339.5092926 C-105.67909878 340.75660976 -111.82574293 342.02793979 -117.97216797 343.30078125 C-123.1660983 344.3756682 -128.36196059 345.4400978 -133.56083298 346.49083138 C-135.97837578 346.98372092 -138.39247655 347.49144519 -140.80679321 347.99986267 C-162.20403655 352.39962953 -162.20403655 352.39962953 -170.3125 348.625 C-173.43811217 345.58164078 -175.43716623 342.97458342 -176.09706116 338.5932312 C-176.0541412 329.8736135 -174.6919104 321.75157666 -172.8789959 313.26227188 C-172.35882309 310.82532596 -171.85506374 308.38545141 -171.35499573 305.94430542 C-170.29253712 300.77236843 -169.20993378 295.60476162 -168.125 290.4375 C-166.86314997 284.42211488 -165.60982048 278.40515902 -164.37535286 272.38409042 C-163.88025405 269.989615 -163.37110866 267.59841808 -162.8611908 265.20706177 C-162.55709698 263.73339469 -162.25364196 262.25959561 -161.95092773 260.78564453 C-161.68223373 259.50803253 -161.41353973 258.23042053 -161.13670349 256.91409302 C-160.49771199 251.79083068 -161.08360951 247.13278234 -163.140625 242.39453125 C-163.42784424 241.7077832 -163.71506348 241.02103516 -164.01098633 240.31347656 C-164.31673584 239.5912793 -164.62248535 238.86908203 -164.9375 238.125 C-167.60584245 231.53626257 -169.77742892 224.9601059 -171.5 218.0625 C-171.69432617 217.29655518 -171.88865234 216.53061035 -172.08886719 215.74145508 C-175.26101803 202.49953717 -176.09435406 189.42730133 -176.0625 175.875 C-176.06228851 175.04200378 -176.06207703 174.20900757 -176.06185913 173.35076904 C-176.01263304 153.86796941 -173.33900596 135.6675355 -166.6875 117.3125 C-166.25824219 116.10980469 -165.82898438 114.90710938 -165.38671875 113.66796875 C-157.24066464 92.12108195 -145.28741506 72.26548696 -129.13232422 55.78808594 C-127.59566685 54.21871163 -126.08150583 52.62924088 -124.56640625 51.0390625 C-113.83131556 39.90162898 -102.15766241 30.99292029 -88.6875 23.3125 C-88.05360352 22.94769531 -87.41970703 22.58289063 -86.76660156 22.20703125 C-72.67264754 14.17683479 -58.08688033 8.51051739 -42.375 4.5 C-41.23067505 4.20754395 -41.23067505 4.20754395 -40.06323242 3.90917969 C-26.74055856 0.70393684 -13.63301446 -0.06282418 0 0 Z " fill="#000000" transform="translate(175.6875,16.6875)"/>
</svg>
