<?xml version="1.0" encoding="UTF-8"?>
<svg version="1.1" xmlns="http://www.w3.org/2000/svg" width="512" height="512">
<path d="M0 0 C1.50116113 -0.00576172 1.50116113 -0.00576172 3.03264874 -0.01163983 C4.68640876 -0.01034011 4.68640876 -0.01034011 6.37357807 -0.00901413 C7.54247635 -0.01198525 8.71137462 -0.01495637 9.91569406 -0.01801753 C13.16573124 -0.02520504 16.41573625 -0.02787741 19.66578019 -0.028615 C23.16898672 -0.03046462 26.67218176 -0.03801157 30.17538166 -0.04475021 C37.83871832 -0.05833868 45.50204975 -0.06435924 53.16539645 -0.06876087 C57.95039115 -0.0715228 62.73538383 -0.0757601 67.52037716 -0.08026505 C80.76804159 -0.0924591 94.0157044 -0.10275768 107.26337433 -0.10614014 C108.1114609 -0.1063597 108.95954747 -0.10657927 109.83333363 -0.10680549 C111.10851678 -0.10713291 111.10851678 -0.10713291 112.4094612 -0.10746694 C114.13214473 -0.1079104 115.85482826 -0.10835697 117.57751179 -0.10880661 C118.85927896 -0.10913875 118.85927896 -0.10913875 120.16694043 -0.10947761 C134.00943593 -0.11342461 147.85187875 -0.13087504 161.6943539 -0.15416613 C175.90552556 -0.17788456 190.11667079 -0.19034224 204.32786256 -0.19150805 C212.30715192 -0.19242462 220.28637267 -0.19817201 228.26564312 -0.21632767 C235.06121273 -0.23173539 241.85669254 -0.23684522 248.6522763 -0.22858956 C252.11858702 -0.22468522 255.58471694 -0.22560186 259.05100536 -0.23964691 C262.81200588 -0.25232242 266.5725419 -0.24651287 270.33353901 -0.23606491 C271.97056861 -0.24814952 271.97056861 -0.24814952 273.64066952 -0.26047826 C284.02494591 -0.19297984 290.35740733 2.53533276 297.9639864 9.72127151 C303.7325639 16.02076234 305.31180348 22.67819079 305.2686739 31.08845901 C305.26545124 32.20027542 305.26222858 33.31209183 305.25890827 34.45759964 C305.25052937 35.60808792 305.24215046 36.7585762 305.23351765 37.94392776 C305.22900593 39.11375198 305.22449421 40.2835762 305.21984577 41.48884964 C305.20808695 44.36976134 305.1916519 47.2505682 305.17101765 50.13142776 C306.23320515 50.07341995 307.29539265 50.01541214 308.38976765 49.95564651 C322.21924794 49.42437215 322.21924794 49.42437215 327.69445515 53.70564651 C332.42883636 58.27720509 335.02117038 62.23937545 335.36633015 68.90095901 C335.35318092 70.24875491 335.32954255 71.59648472 335.29601765 72.94392776 C335.28699421 73.63679886 335.27797077 74.32966995 335.2686739 75.04353714 C335.24527921 76.73965172 335.20941405 78.43558647 335.17101765 80.13142776 C335.91150349 80.11571732 336.65198933 80.10000687 337.41491413 80.08382034 C340.81270237 80.02095237 344.21036768 79.98227336 347.60851765 79.94392776 C348.77318562 79.91879105 349.93785358 79.89365433 351.13781452 79.86775589 C362.6802147 79.77021448 369.56919937 81.68930493 377.99914265 89.71345901 C383.2145592 95.51983104 385.29338358 101.77225929 385.30523872 109.50094318 C385.30759095 110.15312099 385.30994318 110.8052988 385.31236669 111.47723958 C385.31906051 113.6778272 385.31859836 115.87835583 385.31818867 118.07895279 C385.32148707 119.66658889 385.32521258 121.25422414 385.32933015 122.84185833 C385.3393612 127.2167829 385.34306872 131.59169375 385.34571946 135.96662819 C385.34961929 140.68051814 385.35919792 145.39439718 385.36793232 150.10828018 C385.38770685 161.49909249 385.39776465 172.88990569 385.40666011 184.28073087 C385.4110418 189.64346414 385.41640895 195.00619642 385.42164898 200.36892891 C385.43866301 218.19400102 385.45315712 236.01907251 385.46039772 253.8441515 C385.46230765 258.47124164 385.46422798 263.09833178 385.46618366 267.72542191 C385.4666674 268.8754796 385.46715114 270.02553729 385.46764954 271.21044522 C385.47594958 289.84005884 385.50128528 308.46960824 385.53376434 327.09919382 C385.56683068 346.22140822 385.58484614 365.34358998 385.58804196 384.46583313 C385.59020756 395.20399483 385.59896341 405.94206291 385.62450314 416.68019676 C385.64620438 425.82566001 385.6542634 434.97100692 385.64453635 444.11649299 C385.63998987 448.78203257 385.64189815 453.44733206 385.6612978 458.11283875 C385.6789175 462.38723948 385.67794148 466.66122477 385.66240051 470.93562984 C385.66002261 472.47878156 385.66435748 474.02196197 385.67622916 475.56506986 C385.74976336 485.7577483 384.70775198 493.72230466 379.04601765 502.38142776 C373.40702581 507.77524605 366.62464755 512.24794793 358.65717602 512.26564884 C357.72668654 512.27010669 356.79619707 512.27456453 355.83751094 512.27915746 C354.81350535 512.2789731 353.78949976 512.27878873 352.73446369 512.27859879 C351.64794203 512.28227547 350.56142037 512.28595216 349.44197381 512.28974026 C345.78247719 512.30079852 342.12300895 512.30462459 338.46349812 512.30842972 C335.84714893 512.31469277 333.23080063 512.32133942 330.61445332 512.32834244 C322.74907782 512.3481056 314.88370103 512.35817339 307.01830691 512.36707023 C303.31361602 512.37145384 299.60892656 512.3768205 295.90423679 512.3820591 C283.58732811 512.3990721 271.27042033 512.41356562 258.9535017 512.42080784 C255.7571268 512.42271771 252.5607519 512.42463805 249.36437702 512.42659378 C248.56994018 512.42707752 247.77550333 512.42756126 246.95699264 512.42805966 C234.09159799 512.4363575 221.22629638 512.46168992 208.36094235 512.49417446 C195.14982707 512.52725978 181.93875905 512.54525798 168.72760212 512.54845208 C161.31107732 512.55061594 153.89468817 512.55934622 146.47820377 512.58491325 C139.49982822 512.60891446 132.52170035 512.61243665 125.54329205 512.60215187 C122.9830955 512.60165581 120.42288704 512.60799668 117.86272717 512.62170792 C114.36468306 512.63939256 110.86751815 512.63233638 107.36947346 512.61917496 C105.85354156 512.63562883 105.85354156 512.63562883 104.30698478 512.6524151 C94.96360635 512.56767619 87.82087885 509.53464281 80.9639864 503.19783401 C75.45455254 496.84818149 73.0311464 489.54619195 73.0733614 481.27205276 C73.07819538 479.59949417 73.07819538 479.59949417 73.08312702 477.89314651 C73.09569538 476.15484573 73.09569538 476.15484573 73.10851765 474.38142776 C73.11302937 473.20709183 73.11754108 472.03275589 73.12218952 470.82283401 C73.1339667 467.92564704 73.15041439 465.02856323 73.17101765 462.13142776 C72.05243366 462.17070389 72.05243366 462.17070389 70.91125202 462.21077347 C67.49805906 462.31538328 64.08520437 462.37995746 60.67101765 462.44392776 C59.49797077 462.4858223 58.3249239 462.52771683 57.11633015 462.57088089 C49.78408118 462.67386191 44.7804711 462.0694549 39.17101765 457.13142776 C33.96051523 451.64668838 32.86144361 446.73738407 33.04601765 439.31892776 C33.05504108 438.62605667 33.06406452 437.93318558 33.0733614 437.21931839 C33.09675608 435.52320381 33.13262124 433.82726906 33.17101765 432.13142776 C32.12760212 432.14713821 31.08418659 432.16284866 30.00915241 432.17903519 C26.10102925 432.23374498 22.19293926 432.26792558 18.28454304 432.29622269 C16.59991462 432.31121651 14.91532462 432.3316185 13.2308321 432.35774612 C-0.28894535 432.56204498 -9.41732255 432.29627242 -19.65710735 422.54939651 C-24.87252391 416.74302449 -26.95134829 410.49059624 -26.96320343 402.76191235 C-26.96555566 402.10973454 -26.96790789 401.45755673 -26.9703314 400.78561595 C-26.97702522 398.58502833 -26.97656306 396.3844997 -26.97615337 394.18390274 C-26.97945177 392.59626664 -26.98317729 391.00863139 -26.98729485 389.4209972 C-26.9973259 385.04607263 -27.00103343 380.67116178 -27.00368416 376.29622734 C-27.007584 371.58233739 -27.01716262 366.86845835 -27.02589703 362.15457535 C-27.04567156 350.76376304 -27.05572936 339.37294984 -27.06462482 327.98212466 C-27.0690065 322.61939139 -27.07437366 317.25665911 -27.07961369 311.89392662 C-27.09662771 294.06885451 -27.11112183 276.24378302 -27.11836243 258.41870403 C-27.12027236 253.79161389 -27.12219269 249.16452375 -27.12414837 244.53743362 C-27.12463211 243.38737593 -27.12511585 242.23731824 -27.12561425 241.05241031 C-27.13391428 222.42279669 -27.15924999 203.79324729 -27.19172905 185.16366171 C-27.22479539 166.04144731 -27.24281085 146.91926555 -27.24600667 127.7970224 C-27.24817226 117.0588607 -27.25692811 106.32079262 -27.28246784 95.58265877 C-27.30416909 86.43719552 -27.31222811 77.29184861 -27.30250106 68.14636254 C-27.29795458 63.48082296 -27.29986286 58.81552347 -27.3192625 54.15001678 C-27.3368822 49.87561605 -27.33590619 45.60163076 -27.32036521 41.32722569 C-27.31798731 39.78407397 -27.32232219 38.24089356 -27.33419386 36.69778567 C-27.40772806 26.50510723 -26.36571669 18.54055087 -20.70398235 9.88142776 C-14.920526 4.34942604 -8.14169434 0.01171404 0 0 Z M-4.11002207 23.85660225 C-6.3979346 26.88436377 -6.33020894 28.7522266 -6.33234692 32.52863598 C-6.33816068 33.171647 -6.34397444 33.81465802 -6.34996438 34.47715423 C-6.36461122 36.64084932 -6.35065877 38.80341826 -6.33691692 40.96710587 C-6.34152404 42.53029988 -6.34787568 44.09348957 -6.3558259 45.65667015 C-6.37256877 49.9592935 -6.36425049 54.26156328 -6.35188103 58.56418812 C-6.34285297 63.20163665 -6.35678913 67.83902318 -6.36780071 72.4764595 C-6.385615 81.56426418 -6.3817329 90.65193695 -6.37015015 99.73974686 C-6.36112697 107.12425052 -6.35988699 114.50871713 -6.36424541 121.89322472 C-6.36485835 122.94310105 -6.36547128 123.99297739 -6.36610278 125.07466816 C-6.36738165 127.20729638 -6.3686785 129.33992459 -6.36999315 131.47255278 C-6.38140762 151.48461149 -6.36827195 171.49659699 -6.34679168 191.50864369 C-6.32892253 208.68836166 -6.33202164 225.86797152 -6.35046673 243.04768753 C-6.37186264 262.98520201 -6.38030615 282.92265226 -6.36801767 302.86017662 C-6.36674344 304.98538942 -6.36548596 307.11060223 -6.36424541 309.23581505 C-6.36362831 310.28152933 -6.36301121 311.32724361 -6.36237541 312.4046462 C-6.35891847 319.78170771 -6.3647583 327.15872856 -6.37416363 334.53578377 C-6.38537089 343.52401597 -6.38237049 352.5121084 -6.36104065 361.50032454 C-6.35051268 366.08827872 -6.34643804 370.67599969 -6.35963726 375.26395226 C-6.3715311 379.4615939 -6.36504864 383.65878554 -6.34372705 387.85638619 C-6.33924814 389.37720237 -6.3415561 390.89805633 -6.3512302 392.41884833 C-6.36335388 394.48256933 -6.35096316 396.54473905 -6.33234692 398.60837841 C-6.33169751 399.75562356 -6.3310481 400.90286871 -6.33037901 402.08487886 C-5.71943759 405.79703549 -4.42502148 407.45941275 -1.82898235 410.13142776 C1.18314794 411.63749291 4.28384386 411.25303107 7.58508015 411.22908401 C8.31471973 411.22766907 9.04435932 411.22625412 9.7961092 411.2247963 C12.1294535 411.21919307 14.46270229 411.20664011 16.79601765 411.19392776 C18.37674543 411.18891318 19.95747471 411.1843502 21.53820515 411.18025589 C25.41584619 411.16922261 29.29341572 411.15195587 33.17101765 411.13142776 C33.17191328 410.03779616 33.17191328 410.03779616 33.17282701 408.92207098 C33.20871614 365.71629744 33.26534771 322.51059381 33.3489386 279.30488488 C33.35895613 274.11783435 33.36880025 268.93078351 33.37853718 263.74373245 C33.38047855 262.71107822 33.38241992 261.678424 33.38442013 260.61447722 C33.41544642 243.89098101 33.43242254 227.16749853 33.44421187 210.44397897 C33.45662016 193.28579286 33.4841143 176.12767882 33.52563071 158.96953821 C33.5507753 148.38090805 33.56413422 137.7923974 33.56244722 127.20373696 C33.56241748 119.94399856 33.57703311 112.68438196 33.60318193 105.42469102 C33.61783851 101.23537256 33.62602176 97.04630387 33.61682034 92.85696411 C33.60853505 89.01980987 33.61868331 85.18315753 33.64335427 81.34607774 C33.64903931 79.95968378 33.64802015 78.57324227 33.63953009 77.18686265 C33.59595926 69.40369279 33.87431985 63.74160266 38.17101765 57.13142776 C42.11390382 53.3856859 45.85257724 50.88719449 51.36452579 50.86971474 C52.19805474 50.86224924 53.03158369 50.85478375 53.89037108 50.84709203 C55.25612615 50.84999413 55.25612615 50.84999413 56.64947224 50.85295486 C58.10630165 50.84426626 58.10630165 50.84426626 59.59256196 50.83540213 C62.85540089 50.81836168 66.11809871 50.81552213 69.38097858 50.81258011 C71.71651781 50.80328473 74.05205371 50.79311665 76.38758564 50.78213882 C82.73631277 50.75478077 89.08501764 50.7396722 95.4337883 50.7267108 C101.39396327 50.71268598 107.35409688 50.68954757 113.31424251 50.66644044 C125.11950947 50.62096955 136.92478664 50.58435598 148.73009968 50.55330276 C160.19789134 50.52311844 171.66565804 50.48876871 183.13341999 50.44881058 C183.84028705 50.44634903 184.54715411 50.44388748 185.27544138 50.44135134 C188.82158397 50.42897676 192.36772627 50.41652022 195.91386843 50.40402293 C225.33288207 50.30045069 254.7519304 50.21139631 284.17101765 50.13142776 C284.28750385 46.40252521 284.35836341 42.67409263 284.42101765 38.94392776 C284.47129108 37.36128128 284.47129108 37.36128128 284.52258015 35.74666214 C284.61979308 29.64571224 284.61979308 29.64571224 282.53039265 24.01814651 C276.69541982 19.35210036 270.32226581 19.84669474 263.19492817 19.87746048 C262.08668676 19.8743405 260.97844535 19.87122052 259.83662087 19.86800599 C256.12177916 19.86002642 252.40710082 19.86634958 248.69225788 19.8726387 C246.0295638 19.86992884 243.36688099 19.86644031 240.70419025 19.86201859 C234.22222594 19.85312864 227.74030796 19.85504473 221.25834184 19.86084387 C215.99059834 19.86536153 210.72286783 19.86597281 205.45512295 19.86379623 C204.70525661 19.86348977 203.95539026 19.8631833 203.1828007 19.86286755 C201.65945156 19.8622281 200.13610242 19.86157967 198.61275328 19.86092237 C184.33105051 19.85522034 170.04937343 19.86177517 155.76767487 19.8725231 C143.51254255 19.88146032 131.25744811 19.87990491 119.00231647 19.87068558 C104.76999429 19.85998385 90.53769461 19.85576773 76.30536896 19.8619101 C74.78794484 19.8625472 73.27052071 19.86317594 71.75309658 19.86379623 C71.00649618 19.86410479 70.25989579 19.86441334 69.49067114 19.86473124 C64.22856575 19.86645833 58.96647463 19.8635428 53.70437145 19.85883713 C47.29270675 19.85322946 40.88109102 19.85474242 34.46943193 19.86539862 C31.19793316 19.8706566 27.926533 19.87163418 24.65503216 19.86610031 C21.10998048 19.86065554 17.56516031 19.86746623 14.02012348 19.87746048 C12.98433342 19.87299904 11.94854336 19.86853759 10.88136572 19.86394095 C9.45598284 19.8717642 9.45598284 19.8717642 8.00180435 19.87974548 C6.77468039 19.88023254 6.77468039 19.88023254 5.52276605 19.88072944 C1.64877737 20.29369984 -1.01206531 21.51358476 -4.11002207 23.85660225 Z M95.17101765 106.13142776 C93.7866227 108.90021765 94.04298347 111.13550105 94.03958988 114.23568821 C94.03574874 115.54634355 94.03190759 116.85699889 94.02795005 118.20737106 C94.02873039 119.67581583 94.02960919 121.14426056 94.03057575 122.61270523 C94.02799368 124.16179357 94.02498097 125.71088124 94.02157235 127.25996798 C94.0134805 131.5327913 94.01171157 135.80559784 94.01097488 140.07842791 C94.00912812 144.68044464 94.0015827 149.28245259 93.99483967 153.88446426 C93.98124035 163.95460713 93.97522915 174.02474603 93.97082901 184.09489655 C93.96806931 190.37890664 93.96383246 196.66291517 93.95932484 202.94692421 C93.94713012 220.33447072 93.93683118 237.72201599 93.93344975 255.10956669 C93.93323018 256.22306047 93.93301061 257.33655425 93.93278439 258.48379026 C93.93256612 259.59999721 93.93234784 260.71620415 93.93212295 261.86623555 C93.93167947 264.12821694 93.93123291 266.39019833 93.93078327 268.65217972 C93.93056184 269.77420832 93.93034041 270.89623692 93.93011227 272.05226638 C93.92616304 290.23911883 93.90870608 308.42593124 93.88542375 326.61276821 C93.86173076 345.27049202 93.84924883 363.92819572 93.84808183 382.58593482 C93.84716391 393.06739238 93.84138241 403.54879778 93.82326221 414.03024101 C93.80788889 422.95444278 93.80272435 431.87857628 93.81100032 440.80278877 C93.81491666 445.35829797 93.81392945 449.91366957 93.79994297 454.46916199 C93.78726281 458.63719382 93.78834941 462.80498382 93.80053368 466.97301503 C93.80250094 468.48313072 93.79936509 469.9932632 93.79068932 471.50335524 C93.77966154 473.55209036 93.78884111 475.60090469 93.79908085 477.6496439 C93.79848376 478.7888599 93.79788667 479.92807591 93.79727149 481.10181361 C94.22061065 484.53343238 95.09694391 486.38559415 97.17101765 489.13142776 C102.8704951 492.48412285 108.00768356 492.55595857 114.5080843 492.50564957 C116.04922148 492.51161118 116.04922148 492.51161118 117.62149274 492.51769322 C121.05692526 492.52730143 124.49194447 492.51550677 127.9273653 492.50374222 C130.39316175 492.50617063 132.85895721 492.50989043 135.32474995 492.51480484 C141.32201082 492.52323336 147.31911033 492.51770646 153.31635262 492.5055419 C160.30189469 492.49190182 167.28740823 492.49356148 174.27296023 492.49567523 C186.73639993 492.49886283 199.19978241 492.48720968 211.66320515 492.46760941 C223.75534526 492.44859804 235.84741835 492.44152428 247.93957233 492.44710159 C261.11239078 492.45315939 274.28517977 492.45298294 287.45799577 492.44161576 C288.86250297 492.44040848 290.26701017 492.4392025 291.67151737 492.43799782 C292.36254057 492.43739428 293.05356378 492.43679074 293.76552708 492.43616891 C298.63440396 492.43229021 303.50326988 492.43268317 308.37214756 492.43458366 C314.92371816 492.43692727 321.47521475 492.42837696 328.02677059 492.41252327 C330.43383331 492.40827421 332.84090476 492.40743402 335.24796963 492.41021347 C338.52804769 492.4134269 341.80786684 492.40437443 345.08791828 492.39212418 C346.04520726 492.3959035 347.00249624 492.39968282 347.98879397 492.40357667 C354.35146637 492.43479681 354.35146637 492.43479681 360.17101765 490.13142776 C363.86637013 486.30689728 364.67138444 483.90612041 364.67438221 478.62678909 C364.68310285 477.66307436 364.68310285 477.66307436 364.69199967 476.67989063 C364.70661399 474.52403206 364.69270923 472.36930954 364.67895222 470.21345901 C364.68356061 468.65352674 364.68991311 467.0935988 364.69786119 465.53367996 C364.71458633 461.24471697 364.70629379 456.95610918 364.69391632 452.66714478 C364.68488114 448.04266557 364.69882793 443.41824826 364.70983601 438.79378128 C364.72764221 429.73351913 364.7237719 420.67338937 364.71218544 411.61312199 C364.70315965 404.25104878 364.70192342 396.88901273 364.70628071 389.52693558 C364.70720011 387.95648735 364.70720011 387.95648735 364.70813808 386.3543129 C364.70941695 384.22756321 364.7107138 382.10081354 364.71202844 379.97406387 C364.7234404 360.02161228 364.71031088 340.06923414 364.68882698 320.11679459 C364.67095545 302.98882302 364.67405938 285.86095988 364.69250202 268.73299026 C364.71389786 248.85296721 364.7223417 228.97300857 364.71005297 209.09297562 C364.70877874 206.97395707 364.70752126 204.85493852 364.70628071 202.73591995 C364.70566361 201.69326477 364.7050465 200.65060959 364.7044107 199.5763588 C364.70095394 192.22132702 364.70679317 184.86633603 364.71619892 177.51131058 C364.72740599 168.55055081 364.72440608 159.58993124 364.70307595 150.62918758 C364.69254811 146.05540308 364.68847313 141.4818525 364.70167255 136.90806961 C364.71356653 132.72342032 364.70708373 128.53922242 364.68576235 124.35461426 C364.68128352 122.83853859 364.6835912 121.32242501 364.6932655 119.8063736 C364.70538959 117.74905858 364.69299809 115.69329957 364.67438221 113.63606644 C364.6737328 112.49240112 364.67308339 111.34873581 364.6724143 110.17041397 C364.06081595 106.46349062 362.76285037 104.80053782 360.17101765 102.13142776 C357.84522293 100.96853041 356.4998318 101.00215027 353.90960693 100.99441338 C353.00999227 100.98933883 352.11037761 100.98426429 351.1835019 100.97903597 C350.18887352 100.97853822 349.19424514 100.97804046 348.16947651 100.97752762 C347.11773898 100.97314536 346.06600145 100.96876311 344.98239309 100.96424806 C341.43483325 100.95082276 337.88729827 100.94467287 334.33971882 100.93855667 C331.80569565 100.93065874 329.27167362 100.92238998 326.73765278 100.9137764 C319.11660101 100.88979039 311.49555044 100.87462441 303.87447283 100.86171633 C301.7226856 100.85800527 299.57089902 100.85403197 297.41911244 100.84996367 C284.06233057 100.82472941 270.7055477 100.80267212 257.34874725 100.79023552 C254.25426638 100.78730573 251.15978555 100.78434408 248.06530476 100.78133011 C247.2961687 100.78058406 246.52703264 100.77983801 245.73458944 100.77906935 C233.27056168 100.76641136 220.80667645 100.73318285 208.34271535 100.69152828 C195.55201655 100.64913141 182.76139077 100.62554315 169.97062188 100.62031496 C162.78667914 100.6168984 155.60295917 100.60511468 148.4190855 100.57221222 C141.66311281 100.54132058 134.90759675 100.53578214 128.15154171 100.54759598 C125.66867469 100.54781759 123.18579017 100.5394409 120.70298481 100.52194214 C117.31935245 100.49938793 113.93714742 100.50748283 110.55350971 100.52342606 C109.5655735 100.50954397 108.57763728 100.49566188 107.55976361 100.48135912 C101.69462648 100.54968984 98.86337984 101.13970049 95.17101765 106.13142776 Z " fill="#A3FAC3" transform="translate(76.82898235321045,-0.13142776489257813)"/>
<path d="M0 0 C63.36 0 126.72 0 192 0 C192 60.06 192 120.12 192 182 C128.64 182 65.28 182 0 182 C0 121.94 0 61.88 0 0 Z " fill="#A3FBC3" transform="translate(210,130)"/>
<path d="M0 0 C1.07616843 -0.0055344 2.15233685 -0.01106879 3.26111645 -0.0167709 C6.84382705 -0.03031358 10.42583331 -0.01544227 14.00852966 -0.00050354 C16.58650507 -0.00428899 19.16447845 -0.00979089 21.7424469 -0.01687622 C28.00334247 -0.03076749 34.26403554 -0.02328335 40.52492137 -0.00820064 C47.82352113 0.00870894 55.12207114 0.00544301 62.42068445 0.00170528 C75.44691452 -0.00416566 88.47304776 0.00996866 101.49925232 0.03465271 C114.12559131 0.05857617 126.75180098 0.06565407 139.37815857 0.05516052 C153.14471239 0.0437398 166.91120648 0.04183513 180.67775959 0.05625862 C182.1468871 0.05778438 183.61601461 0.05930474 185.08514214 0.06081963 C186.16925921 0.06195635 186.16925921 0.06195635 187.27527763 0.06311603 C192.35721891 0.06784955 197.43913343 0.06601408 202.5210743 0.06175423 C209.36575601 0.05630051 216.21025599 0.06711374 223.05490494 0.08870888 C225.56510376 0.09426768 228.07531978 0.09475039 230.58551979 0.08975601 C234.01521855 0.08378849 237.4443736 0.09633726 240.87402344 0.11352539 C241.86430607 0.10751535 242.8545887 0.1015053 243.8748799 0.09531313 C254.33200329 0.19042994 261.11351753 2.86037633 268.7016449 10.08323669 C273.91706145 15.88960872 275.99588583 22.14203697 276.00774097 29.87072086 C276.0100932 30.52289867 276.01244543 31.17507648 276.01486894 31.84701726 C276.02156276 34.04760488 276.02110061 36.24813351 276.02069092 38.44873047 C276.02398932 40.03636657 276.02771483 41.62400182 276.0318324 43.21163601 C276.04186345 47.58656058 276.04557097 51.96147143 276.04822171 56.33640587 C276.05212154 61.05029582 276.06170017 65.76417486 276.07043457 70.47805786 C276.0902091 81.86887016 276.1002669 93.25968337 276.10916236 104.65050855 C276.11354405 110.01324182 276.1189112 115.3759741 276.12415123 120.73870659 C276.14116526 138.5637787 276.15565937 156.38885019 276.16289997 174.21392918 C276.1648099 178.84101932 276.16673023 183.46810946 276.16868591 188.09519958 C276.16916965 189.24525728 276.16965339 190.39531497 276.17015179 191.5802229 C276.17845183 210.20983652 276.20378753 228.83938592 276.23626659 247.4689715 C276.26933293 266.5911859 276.28734839 285.71336766 276.29054421 304.83561081 C276.29270981 315.57377251 276.30146566 326.31184059 276.32700539 337.04997444 C276.34870663 346.19543769 276.35676565 355.3407846 276.3470386 364.48627067 C276.34249212 369.15181025 276.3444004 373.81710974 276.36380005 378.48261642 C276.38141975 382.75701716 276.38044373 387.03100244 276.36490276 391.30540752 C276.36252486 392.84855924 276.36685973 394.39173965 276.37873141 395.93484754 C276.45226561 406.12752598 275.41025424 414.09208234 269.7485199 422.75120544 C264.10952806 428.14502373 257.3271498 432.61772561 249.35967827 432.63542652 C248.42918879 432.63988437 247.49869932 432.64434221 246.54001319 432.64893514 C245.5160076 432.64875078 244.49200201 432.64856641 243.43696594 432.64837646 C242.35044428 432.65205315 241.26392262 432.65572984 240.14447606 432.65951794 C236.48497944 432.6705762 232.8255112 432.67440227 229.16600037 432.6782074 C226.54965118 432.68447045 223.93330288 432.6911171 221.31695557 432.69812012 C213.45158007 432.71788328 205.58620328 432.72795107 197.72080916 432.73684791 C194.01611827 432.74123151 190.31142881 432.74659818 186.60673904 432.75183678 C174.28983037 432.76884978 161.97292258 432.7833433 149.65600395 432.79058552 C146.45962905 432.79249539 143.26325415 432.79441573 140.06687927 432.79637146 C139.27244243 432.7968552 138.47800558 432.79733894 137.65949489 432.79783734 C124.79410024 432.80613518 111.92879863 432.8314676 99.0634446 432.86395214 C85.85232932 432.89703746 72.6412613 432.91503565 59.43010437 432.91822976 C52.01357957 432.92039362 44.59719042 432.9291239 37.18070602 432.95469093 C30.20233047 432.97869213 23.2242026 432.98221433 16.2457943 432.97192955 C13.68559775 432.97143349 11.12538929 432.97777436 8.56522942 432.9914856 C5.06718531 433.00917024 1.5700204 433.00211406 -1.92802429 432.98895264 C-3.44395619 433.00540651 -3.44395619 433.00540651 -4.99051297 433.02219278 C-14.3338914 432.93745387 -21.4766189 429.90442049 -28.33351135 423.56761169 C-34.05859884 416.96941719 -36.25308014 409.57871215 -36.24787712 401.02425957 C-36.24884057 400.37261629 -36.24980403 399.72097301 -36.25079668 399.04958296 C-36.25278779 396.85682449 -36.24758614 394.66414221 -36.24241638 392.47138977 C-36.2423022 390.88701631 -36.24261584 389.30264277 -36.24332154 387.71826947 C-36.24393187 383.35699568 -36.23816044 378.99574997 -36.23129797 374.63448238 C-36.22494581 369.93356938 -36.22430775 365.23265486 -36.22277832 360.53173828 C-36.2176885 349.17544007 -36.20261577 337.8191636 -36.18584985 326.46287745 C-36.18118543 323.25564946 -36.17679077 320.04842122 -36.17249537 316.84119272 C-36.1458201 296.92661956 -36.11601617 277.01205398 -36.07652092 257.09750175 C-36.06742024 252.48467389 -36.05835016 247.87184597 -36.04933167 243.25901794 C-36.0470871 242.11251637 -36.04484254 240.96601479 -36.04252996 239.78477074 C-36.00673147 221.21021332 -35.99144169 202.63569763 -35.98457418 184.06110929 C-35.97717634 164.99305613 -35.95103126 145.92510028 -35.90662587 126.85709679 C-35.88216828 116.15025766 -35.86600344 105.44354484 -35.87089157 94.73667526 C-35.87500754 85.61862087 -35.86221123 76.50078891 -35.8273304 67.38279681 C-35.81005799 62.73140838 -35.80082 58.08037256 -35.81334114 53.4289608 C-35.82462404 49.16742393 -35.8127817 44.90658906 -35.78282966 40.64514829 C-35.77603837 39.10675593 -35.77759586 37.56829824 -35.78852962 36.02992974 C-35.85523623 25.78387622 -34.63731625 18.04141608 -28.02101135 9.91526794 C-27.33394104 9.32487732 -26.64687073 8.73448669 -25.9389801 8.12620544 C-25.26480042 7.52034607 -24.59062073 6.91448669 -23.89601135 6.29026794 C-16.22571321 1.3354068 -9.01533135 -0.08763944 0 0 Z M-14.1264801 26.50120544 C-15.51087505 29.26999533 -15.25451428 31.50527873 -15.25790787 34.60546589 C-15.26174901 35.91612123 -15.26559016 37.22677657 -15.2695477 38.57714874 C-15.26876736 40.04559351 -15.26788855 41.51403824 -15.266922 42.98248291 C-15.26950407 44.53157125 -15.27251678 46.08065892 -15.2759254 47.62974566 C-15.28401725 51.90256898 -15.28578618 56.17537552 -15.28652287 60.44820559 C-15.28836963 65.05022232 -15.29591505 69.65223027 -15.30265808 74.25424194 C-15.3162574 84.32438481 -15.3222686 94.39452371 -15.32666874 104.46467423 C-15.32942844 110.74868432 -15.33366529 117.03269285 -15.33817291 123.31670189 C-15.35036763 140.7042484 -15.36066657 158.09179367 -15.364048 175.47934437 C-15.36426757 176.59283815 -15.36448714 177.70633193 -15.36471336 178.85356794 C-15.36493163 179.96977489 -15.36514991 181.08598183 -15.3653748 182.23601323 C-15.36581827 184.49799462 -15.36626484 186.75997601 -15.36671448 189.0219574 C-15.36693591 190.143986 -15.36715734 191.2660146 -15.36738548 192.42204406 C-15.37133471 210.60889651 -15.38879167 228.79570892 -15.412074 246.98254589 C-15.43576699 265.6402697 -15.44824892 284.2979734 -15.44941592 302.9557125 C-15.45033384 313.43717006 -15.45611534 323.91857546 -15.47423553 334.40001869 C-15.48960885 343.32422046 -15.4947734 352.24835396 -15.48649743 361.17256645 C-15.48258109 365.72807565 -15.4835683 370.28344725 -15.49755478 374.83893967 C-15.51023494 379.0069715 -15.50914834 383.1747615 -15.49696407 387.34279271 C-15.49499681 388.8529084 -15.49813266 390.36304088 -15.50680843 391.87313292 C-15.51783621 393.92186804 -15.50865664 395.97068237 -15.4984169 398.01942158 C-15.49901399 399.15863758 -15.49961108 400.29785359 -15.50022626 401.47159129 C-15.07688709 404.90321006 -14.20055384 406.75537183 -12.1264801 409.50120544 C-6.42700265 412.85390053 -1.28981419 412.92573625 5.21058655 412.87542725 C6.75172373 412.88138886 6.75172373 412.88138886 8.32399499 412.8874709 C11.75942751 412.8970791 15.19444672 412.88528445 18.62986755 412.8735199 C21.095664 412.87594831 23.56145946 412.87966811 26.0272522 412.88458252 C32.02451307 412.89301104 38.02161258 412.88748414 44.01885487 412.87531958 C51.00439694 412.8616795 57.98991048 412.86333915 64.97546248 412.86545291 C77.43890218 412.86864051 89.90228466 412.85698736 102.3657074 412.83738708 C114.45784751 412.81837572 126.5499206 412.81130196 138.64207458 412.81687927 C151.81489303 412.82293707 164.98768202 412.82276061 178.16049802 412.81139344 C179.56500522 412.81018616 180.96951242 412.80898018 182.37401962 412.8077755 C183.06504283 412.80717196 183.75606603 412.80656842 184.46802933 412.80594659 C189.33690621 412.80206789 194.20577213 412.80246085 199.07464981 412.80436134 C205.62622041 412.80670495 212.17771701 412.79815464 218.72927284 412.78230095 C221.13633556 412.77805189 223.54340701 412.7772117 225.95047188 412.77999115 C229.23054994 412.78320458 232.5103691 412.77415211 235.79042053 412.76190186 C236.74770951 412.76568118 237.70499849 412.7694605 238.69129622 412.77335435 C245.05396863 412.80457449 245.05396863 412.80457449 250.8735199 410.50120544 C254.56887238 406.67667495 255.37388669 404.27589809 255.37688446 398.99656677 C255.38560511 398.03285203 255.38560511 398.03285203 255.39450192 397.04966831 C255.40911624 394.89380974 255.39521148 392.73908722 255.38145447 390.58323669 C255.38606286 389.02330442 255.39241536 387.46337648 255.40036345 385.90345764 C255.41708858 381.61449465 255.40879605 377.32588686 255.39641857 373.03692245 C255.38738339 368.41244325 255.40133018 363.78802594 255.41233826 359.16355896 C255.43014446 350.10329681 255.42627415 341.04316705 255.41468769 331.98289967 C255.4056619 324.62082646 255.40442567 317.25879041 255.40878296 309.89671326 C255.40970236 308.32626503 255.40970236 308.32626503 255.41064033 306.72409058 C255.4119192 304.59734089 255.41321606 302.47059122 255.41453069 300.34384155 C255.42594265 280.39138996 255.41281313 260.43901182 255.39132923 240.48657227 C255.3734577 223.3586007 255.37656163 206.23073756 255.39500427 189.10276794 C255.41640011 169.22274489 255.42484395 149.34278625 255.41255522 129.4627533 C255.41128099 127.34373475 255.41002351 125.2247162 255.40878296 123.10569763 C255.40816586 122.06304245 255.40754875 121.02038727 255.40691295 119.94613647 C255.40345619 112.5911047 255.40929542 105.23611371 255.41870117 97.88108826 C255.42990825 88.92032849 255.42690833 79.95970892 255.4055782 70.99896526 C255.39505036 66.42518076 255.39097538 61.85163018 255.4041748 57.27784729 C255.41606878 53.093198 255.40958598 48.9090001 255.3882646 44.72439194 C255.38378577 43.20831627 255.38609345 41.69220269 255.39576775 40.17615128 C255.40789184 38.11883626 255.39550034 36.06307725 255.37688446 34.00584412 C255.37623505 32.8621788 255.37558564 31.71851349 255.37491655 30.54019165 C254.7633182 26.8332683 253.46535262 25.1703155 250.8735199 22.50120544 C248.54772518 21.33830809 247.20233405 21.37192795 244.61210918 21.36419106 C243.71249452 21.35911651 242.81287986 21.35404197 241.88600415 21.34881365 C240.89137577 21.3483159 239.89674739 21.34781814 238.87197876 21.3473053 C237.82024123 21.34292304 236.7685037 21.33854079 235.68489534 21.33402574 C232.1373355 21.32060044 228.58980052 21.31445055 225.04222107 21.30833435 C222.5081979 21.30043642 219.97417587 21.29216766 217.44015503 21.28355408 C209.81910326 21.25956807 202.19805269 21.24440209 194.57697508 21.23149401 C192.42518785 21.22778295 190.27340127 21.22380965 188.12161469 21.21974134 C174.76483282 21.19450709 161.40804995 21.1724498 148.0512495 21.1600132 C144.95676863 21.15708341 141.8622878 21.15412176 138.76780701 21.15110779 C137.99867095 21.15036174 137.22953489 21.14961569 136.43709169 21.14884703 C123.97306393 21.13618904 111.5091787 21.10296053 99.0452176 21.06130596 C86.2545188 21.01890909 73.46389302 20.99532083 60.67312413 20.99009264 C53.4891814 20.98667608 46.30546142 20.97489236 39.12158775 20.9419899 C32.36561506 20.91109826 25.610099 20.90555982 18.85404396 20.91737366 C16.37117694 20.91759527 13.88829242 20.90921858 11.40548706 20.89171982 C8.0218547 20.86916561 4.63964967 20.87726051 1.25601196 20.89320374 C0.26807575 20.87932165 -0.71986046 20.86543956 -1.73773414 20.8511368 C-7.60287127 20.91946752 -10.43411791 21.50947817 -14.1264801 26.50120544 Z " fill="#020288" transform="translate(186.12648010253906,79.49879455566406)"/>
<path d="M0 0 C1.50116113 -0.00576172 1.50116113 -0.00576172 3.03264874 -0.01163983 C4.68640876 -0.01034011 4.68640876 -0.01034011 6.37357807 -0.00901413 C7.54247635 -0.01198525 8.71137462 -0.01495637 9.91569406 -0.01801753 C13.16573124 -0.02520504 16.41573625 -0.02787741 19.66578019 -0.028615 C23.16898672 -0.03046462 26.67218176 -0.03801157 30.17538166 -0.04475021 C37.83871832 -0.05833868 45.50204975 -0.06435924 53.16539645 -0.06876087 C57.95039115 -0.0715228 62.73538383 -0.0757601 67.52037716 -0.08026505 C80.76804159 -0.0924591 94.0157044 -0.10275768 107.26337433 -0.10614014 C108.1114609 -0.1063597 108.95954747 -0.10657927 109.83333363 -0.10680549 C111.10851678 -0.10713291 111.10851678 -0.10713291 112.4094612 -0.10746694 C114.13214473 -0.1079104 115.85482826 -0.10835697 117.57751179 -0.10880661 C118.85927896 -0.10913875 118.85927896 -0.10913875 120.16694043 -0.10947761 C134.00943593 -0.11342461 147.85187875 -0.13087504 161.6943539 -0.15416613 C175.90552556 -0.17788456 190.11667079 -0.19034224 204.32786256 -0.19150805 C212.30715192 -0.19242462 220.28637267 -0.19817201 228.26564312 -0.21632767 C235.06121273 -0.23173539 241.85669254 -0.23684522 248.6522763 -0.22858956 C252.11858702 -0.22468522 255.58471694 -0.22560186 259.05100536 -0.23964691 C262.81200588 -0.25232242 266.5725419 -0.24651287 270.33353901 -0.23606491 C271.97056861 -0.24814952 271.97056861 -0.24814952 273.64066952 -0.26047826 C284.02494591 -0.19297984 290.35740733 2.53533276 297.9639864 9.72127151 C303.7325639 16.02076234 305.31180348 22.67819079 305.2686739 31.08845901 C305.26545124 32.20027542 305.26222858 33.31209183 305.25890827 34.45759964 C305.25052937 35.60808792 305.24215046 36.7585762 305.23351765 37.94392776 C305.22900593 39.11375198 305.22449421 40.2835762 305.21984577 41.48884964 C305.20808707 44.36973099 305.19015239 47.25058596 305.17101765 50.13142776 C298.24101765 50.13142776 291.31101765 50.13142776 284.17101765 50.13142776 C284.15683796 48.52912308 284.14265827 46.92681839 284.1280489 45.27595901 C284.08114432 43.16525327 284.03289696 41.05457706 283.98351765 38.94392776 C283.97771687 37.88883011 283.97191608 36.83373245 283.96593952 35.74666214 C283.81624847 29.42334464 283.81624847 29.42334464 280.8702364 23.95564651 C277.0461215 21.37118681 274.01432407 21.00671006 269.46048546 21.00279331 C268.51160456 20.99956887 267.56272366 20.99634442 266.58508879 20.99302226 C265.54570377 20.99457087 264.50631874 20.99611947 263.4354372 20.997715 C262.32890464 20.99544944 261.22237208 20.99318388 260.08230823 20.99084967 C256.36129787 20.98450151 252.64032385 20.98533956 248.91930866 20.98616409 C246.25691306 20.98317314 243.59452035 20.97979924 240.93212605 20.97598648 C234.44321673 20.96767845 227.9543165 20.96493158 221.46540231 20.9643741 C216.1918927 20.96389907 210.91838609 20.96184493 205.64487743 20.95867348 C190.69736662 20.9498669 175.749863 20.94525417 160.80234957 20.94600395 C159.59349872 20.94606389 159.59349872 20.94606389 158.36022663 20.94612503 C157.55334359 20.94616591 156.74646054 20.94620679 155.9151265 20.94624891 C142.83372997 20.9466555 129.75236222 20.93708269 116.67097402 20.92298666 C103.24288384 20.90863105 89.81480769 20.90171601 76.38670963 20.90258044 C68.84629472 20.90291267 61.30590998 20.90015431 53.76550198 20.88940239 C47.34647403 20.88030816 40.92748992 20.87811329 34.50845832 20.88491181 C31.23291961 20.88818234 27.95748277 20.88713282 24.68194866 20.87955856 C21.13241705 20.87188075 17.58310829 20.87645557 14.03358173 20.88418961 C12.99642743 20.87904604 11.95927313 20.87390248 10.89068991 20.86860305 C9.93920126 20.87320185 8.98771261 20.87780064 8.00739098 20.8825388 C6.7786408 20.88221274 6.7786408 20.88221274 5.52506739 20.8818801 C2.00074161 21.25548617 -0.70672092 22.35784444 -3.61753798 24.36429274 C-5.44124741 27.02453937 -5.20770775 29.20344345 -5.2120924 32.40558815 C-5.21953167 33.36837392 -5.21953167 33.36837392 -5.22712123 34.3506099 C-5.2401457 36.51622164 -5.23167152 38.68122369 -5.22339153 40.84685135 C-5.22827723 42.40918087 -5.23446553 43.97150676 -5.24184942 45.53382647 C-5.25831312 49.83864575 -5.25591802 54.14328267 -5.25047445 58.4481225 C-5.24781213 63.08626864 -5.26232104 67.72436529 -5.27456951 72.36249161 C-5.29565982 81.45374733 -5.3001623 90.54493933 -5.29838163 99.63621663 C-5.29707576 107.02360147 -5.30086915 114.41096638 -5.30830669 121.79834747 C-5.31040581 123.92350884 -5.31250341 126.04867021 -5.31459951 128.17383158 C-5.31564304 129.2314747 -5.31668657 130.28911781 -5.31776172 131.37881072 C-5.33667874 151.39752357 -5.33560946 171.4161998 -5.32879239 191.43491788 C-5.32321631 209.76077605 -5.34404256 228.08649445 -5.37715286 246.41231994 C-5.4108614 265.21472746 -5.4260617 284.01706797 -5.42143583 302.81950629 C-5.41918821 313.381462 -5.42447697 323.94328854 -5.44932842 334.50521851 C-5.470305 343.49714675 -5.4739699 352.48887499 -5.45502883 361.48081134 C-5.44584827 366.07083955 -5.44479852 370.6604945 -5.46538448 375.250494 C-5.4840116 379.45009821 -5.47968479 383.64902131 -5.45683867 387.84859891 C-5.45263185 389.37012339 -5.45692244 390.89169925 -5.47043461 392.41316955 C-5.48752867 394.47813733 -5.47395594 396.54070903 -5.45260143 398.6055851 C-5.45287382 399.75337232 -5.4531462 400.90115954 -5.45342684 402.08372819 C-4.62891205 406.10790236 -3.005982 407.60794543 0.17101765 410.13142776 C2.93994522 410.63905509 5.11502077 410.85407047 7.8780489 410.83845901 C8.60344364 410.85358032 9.32883839 410.86870163 10.07621479 410.88428116 C12.37896778 410.92705604 14.68040749 410.93598518 16.98351765 410.94392776 C18.5506096 410.96708038 20.11767051 410.99244733 21.68468952 411.02009964 C25.51417471 411.08699906 29.34003402 411.10805515 33.17101765 411.13142776 C33.17101765 418.06142776 33.17101765 424.99142776 33.17101765 432.13142776 C28.20832363 432.20067466 23.24733703 432.26029166 18.28454304 432.29622269 C16.59991462 432.31121651 14.91532462 432.3316185 13.2308321 432.35774612 C-0.28894535 432.56204498 -9.41732255 432.29627242 -19.65710735 422.54939651 C-24.87252391 416.74302449 -26.95134829 410.49059624 -26.96320343 402.76191235 C-26.96555566 402.10973454 -26.96790789 401.45755673 -26.9703314 400.78561595 C-26.97702522 398.58502833 -26.97656306 396.3844997 -26.97615337 394.18390274 C-26.97945177 392.59626664 -26.98317729 391.00863139 -26.98729485 389.4209972 C-26.9973259 385.04607263 -27.00103343 380.67116178 -27.00368416 376.29622734 C-27.007584 371.58233739 -27.01716262 366.86845835 -27.02589703 362.15457535 C-27.04567156 350.76376304 -27.05572936 339.37294984 -27.06462482 327.98212466 C-27.0690065 322.61939139 -27.07437366 317.25665911 -27.07961369 311.89392662 C-27.09662771 294.06885451 -27.11112183 276.24378302 -27.11836243 258.41870403 C-27.12027236 253.79161389 -27.12219269 249.16452375 -27.12414837 244.53743362 C-27.12463211 243.38737593 -27.12511585 242.23731824 -27.12561425 241.05241031 C-27.13391428 222.42279669 -27.15924999 203.79324729 -27.19172905 185.16366171 C-27.22479539 166.04144731 -27.24281085 146.91926555 -27.24600667 127.7970224 C-27.24817226 117.0588607 -27.25692811 106.32079262 -27.28246784 95.58265877 C-27.30416909 86.43719552 -27.31222811 77.29184861 -27.30250106 68.14636254 C-27.29795458 63.48082296 -27.29986286 58.81552347 -27.3192625 54.15001678 C-27.3368822 49.87561605 -27.33590619 45.60163076 -27.32036521 41.32722569 C-27.31798731 39.78407397 -27.32232219 38.24089356 -27.33419386 36.69778567 C-27.40772806 26.50510723 -26.36571669 18.54055087 -20.70398235 9.88142776 C-14.920526 4.34942604 -8.14169434 0.01171404 0 0 Z " fill="#010188" transform="translate(76.82898235321045,-0.13142776489257813)"/>
<path d="M0 0 C0.65607953 -0.00453111 1.31215906 -0.00906223 1.98811978 -0.01373065 C4.178935 -0.02635582 6.36950102 -0.02475553 8.56034851 -0.02310181 C10.13429584 -0.02908828 11.70824024 -0.0358941 13.28218079 -0.04345703 C17.55296254 -0.06111305 21.82366413 -0.06581227 26.09447885 -0.0670886 C28.764514 -0.06851109 31.43452884 -0.07278255 34.10455894 -0.07808304 C43.42463345 -0.09658261 52.74465078 -0.10475382 62.06474304 -0.10317993 C70.74383297 -0.10197883 79.4226741 -0.12307517 88.10170108 -0.15466726 C95.56005117 -0.18084572 103.01832008 -0.19154656 110.47671574 -0.19026911 C114.92817285 -0.1897599 119.37940885 -0.19542023 123.83082008 -0.21662521 C128.01946898 -0.23603391 132.20768647 -0.23611428 136.39635086 -0.22159195 C137.92976832 -0.21950594 139.46321296 -0.22419239 140.99658394 -0.23631287 C148.98898166 -0.29537416 155.49520334 -0.28458484 162.34037781 4.26742554 C164.39897156 6.30258179 164.39897156 6.30258179 165.77787781 8.32992554 C166.25096375 9.0015271 166.72404968 9.67312866 167.21147156 10.36508179 C170.15250819 15.32108469 169.86749057 20.69072525 169.34037781 26.26742554 C167.54566714 32.96615454 163.17217681 36.80666596 157.34037781 40.26742554 C153.98678984 41.38528819 151.45646564 41.4017293 147.92126465 41.41459656 C146.93970863 41.42011159 146.93970863 41.42011159 145.9383232 41.42573804 C143.74136017 41.43676807 141.54444445 41.44061757 139.34745789 41.44442749 C137.77380727 41.45069272 136.20015814 41.45733957 134.62651062 41.46434021 C129.45432057 41.48537809 124.28213024 41.49574317 119.10990906 41.50570679 C117.3285896 41.50975461 115.5472703 41.51387155 113.76595116 41.51805687 C105.39596746 41.5371089 97.02599258 41.55133922 88.65599138 41.55966884 C78.99914142 41.56943804 69.34252087 41.59574919 59.68575174 41.63616973 C52.21895938 41.66634929 44.7522327 41.68113951 37.28538054 41.68444985 C32.82717218 41.68679849 28.3692089 41.69573438 23.91106606 41.72091103 C19.71425529 41.74422866 15.51785032 41.74841027 11.32099152 41.73814964 C9.78434332 41.73765505 8.24767491 41.74395306 6.71108818 41.75770569 C-2.40070904 41.83466522 -9.37741399 41.64207287 -16.68305969 35.59164429 C-21.19364113 30.12940838 -22.95306357 25.37207532 -22.53462219 18.20492554 C-21.74409629 12.20783246 -19.18978703 8.48996257 -14.72212219 4.51742554 C-9.78054608 0.88687982 -6.10738191 0.01746188 0 0 Z " fill="#A3FCC4" transform="translate(232.6596221923828,360.7325744628906)"/>
<path d="M0 0 C2.8100346 1.79363911 4.50940468 3.01880935 6 6 C6.07116382 8.37402501 6.08409085 10.75000677 6.0625 13.125 C6.05347656 14.40632812 6.04445313 15.68765625 6.03515625 17.0078125 C6.02355469 17.99523437 6.01195312 18.98265625 6 20 C7.00377686 19.97905273 8.00755371 19.95810547 9.04174805 19.93652344 C12.77825566 19.86393306 16.51470137 19.81813189 20.25170898 19.78027344 C21.86672458 19.76020108 23.48166789 19.7329367 25.09643555 19.69824219 C27.42254501 19.64952785 29.74769093 19.62698846 32.07421875 19.609375 C32.79212082 19.58872986 33.51002289 19.56808472 34.24967957 19.54681396 C37.89253743 19.54519622 39.84485457 19.89952289 42.93286133 21.89941406 C46.08634907 25.10392671 46.39213776 27.45605816 46.359375 31.9609375 C45.7567698 35.38006698 43.63213933 36.93189052 41 39 C37.99686252 40.50156874 35.20932478 40.09281204 31.875 40.0625 C30.59367187 40.05347656 29.31234375 40.04445312 27.9921875 40.03515625 C26.51105469 40.01775391 26.51105469 40.01775391 25 40 C25.0825 41.03125 25.165 42.0625 25.25 43.125 C25.16449517 55.33081429 19.12075443 66.53595405 13.85058594 77.21923828 C12.79037488 79.43886499 11.86989532 81.69970979 11 84 C19.25095736 92.0497145 30.17354383 97.39118128 41.046875 101.015625 C43.5500261 102.27721316 44.58146334 103.59771036 46 106 C46.50268012 110.52412105 46.55625494 112.86330513 44.5625 116.9375 C41.70987669 119.23351388 39.47810044 120.11544677 35.80859375 120.3203125 C21.61055563 118.70106476 7.79592531 108.61064738 -3 100 C-6.61665098 101.63137717 -9.61568511 103.85121138 -12.8125 106.1875 C-19.7715682 111.14432762 -27.15967244 114.66231338 -35 118 C-35.886875 118.38414062 -36.77375 118.76828125 -37.6875 119.1640625 C-41.18930337 120.4299171 -44.33825484 120.74714396 -48 120 C-51.61391202 117.07811368 -53.74312565 114.88374526 -54.375 110.25 C-53.89195363 106.06359811 -52.03366147 103.76285028 -49 101 C-45.6171875 99.34765625 -45.6171875 99.34765625 -41.875 98.0625 C-32.8746142 94.78140814 -25.42555959 90.05143469 -18 84 C-18.25007813 83.505 -18.50015625 83.01 -18.7578125 82.5 C-32.4083795 55.02716076 -32.4083795 55.02716076 -33 40 C-33.94101562 40.05800781 -34.88203125 40.11601562 -35.8515625 40.17578125 C-47.30579677 40.59078974 -47.30579677 40.59078974 -50.8125 38.0625 C-53.64147426 34.10193604 -54.55394592 30.85362141 -54 26 C-52.23496686 23.07856583 -51.04152365 21.52076183 -48 20 C-45.44637396 19.91341431 -42.9204558 19.88437484 -40.3671875 19.90234375 C-39.23943405 19.90446617 -39.23943405 19.90446617 -38.08889771 19.90663147 C-35.6842249 19.91223535 -33.27964473 19.92478843 -30.875 19.9375 C-29.24609509 19.9425145 -27.61718873 19.9470775 -25.98828125 19.95117188 C-21.99215173 19.96220603 -17.99609158 19.97947321 -14 20 C-14.02175293 19.10506836 -14.04350586 18.21013672 -14.06591797 17.28808594 C-14.08283691 16.11536133 -14.09975586 14.94263672 -14.1171875 13.734375 C-14.13894043 12.57131836 -14.16069336 11.40826172 -14.18310547 10.20996094 C-13.93444689 5.85081027 -12.95526103 4.12909991 -10 1 C-6.79826746 -0.60086627 -3.47422941 -0.49917089 0 0 Z " fill="#030488" transform="translate(310,161)"/>
<path d="M0 0 C0.79532816 -0.00297112 1.59065631 -0.00594224 2.41008532 -0.0090034 C5.08391714 -0.01769795 7.75770423 -0.01919928 10.43154907 -0.02069092 C12.3450378 -0.02531851 14.2585256 -0.03034309 16.17201233 -0.03573608 C21.37654952 -0.04886667 26.58107381 -0.05530618 31.78562498 -0.05974674 C35.0355379 -0.06267605 38.28544729 -0.06678056 41.53535843 -0.07125092 C51.69882961 -0.0849268 61.86229271 -0.09459334 72.02577245 -0.09845281 C83.76712836 -0.1029357 95.50836797 -0.12049397 107.24968851 -0.1494534 C116.3198182 -0.17104984 125.38991512 -0.18115598 134.46007025 -0.18249393 C139.88001512 -0.1835433 145.29985068 -0.18947937 150.71976852 -0.20731354 C155.81690005 -0.22375925 160.91383968 -0.22596676 166.01098824 -0.21717453 C167.88268738 -0.21640231 169.7543967 -0.22077113 171.62607002 -0.23063278 C174.179573 -0.2432989 176.73239086 -0.23750478 179.28588867 -0.22705078 C180.02801302 -0.23510719 180.77013737 -0.24316359 181.53475034 -0.25146413 C187.00321845 -0.19903749 190.18396393 1.12640764 194.08242798 4.89044189 C195.79861123 8.14215754 195.65154886 10.51504352 195.26992798 14.14044189 C193.61853492 17.6791413 192.55387568 18.95114342 189.26992798 21.14044189 C186.60546386 21.33393061 184.04592069 21.40999346 181.38127136 21.39440918 C180.56890343 21.39752916 179.7565355 21.40064914 178.91955036 21.40386367 C176.18804393 21.41186291 173.45675847 21.40551252 170.72525024 21.39923096 C168.77073028 21.40193999 166.81621134 21.40550042 164.86169434 21.40985107 C159.5456319 21.41898843 154.22964687 21.41542511 148.91358304 21.4090929 C143.35673894 21.40403916 137.7999016 21.40872268 132.24305725 21.41186523 C122.9091472 21.41550701 113.57526877 21.41070055 104.24136353 21.40118408 C93.44353499 21.39030232 82.64578199 21.39382225 71.84795529 21.40483689 C62.58590661 21.41390754 53.32388071 21.41519603 44.06182903 21.40995955 C38.52625378 21.40683823 32.99071405 21.40643493 27.45514107 21.41303253 C22.25051328 21.41880201 17.04598304 21.41481635 11.84136581 21.40324402 C9.92893956 21.40059517 8.01650513 21.40136634 6.10408211 21.40576935 C3.49779928 21.41121742 0.89183092 21.40439961 -1.71443176 21.39440918 C-2.47503275 21.39887062 -3.23563373 21.40333207 -4.01928324 21.40792871 C-7.72139568 21.38031813 -10.65830911 21.33541611 -13.73007202 19.14044189 C-16.02155025 15.7427328 -16.73007202 13.69377336 -16.73007202 9.57794189 C-15.53823149 5.48099008 -14.01928019 3.80313422 -10.73007202 1.14044189 C-7.10055396 -0.06939746 -3.77836244 -0.00438514 0 0 Z " fill="#010187" transform="translate(216.73007202148438,440.85955810546875)"/>
<path d="M0 0 C5.94 0 11.88 0 18 0 C17.77485781 6.30398123 16.26288135 11.58031314 14.0625 17.4375 C13.79743652 18.14777344 13.53237305 18.85804688 13.25927734 19.58984375 C12.11940388 22.53327864 11.2558306 24.7441694 9 27 C4.45792353 18.7535251 0 9.5612398 0 0 Z " fill="#A0F6C2" transform="translate(297,201)"/>
</svg>
