<?xml version="1.0" encoding="UTF-8"?>
<svg version="1.1" xmlns="http://www.w3.org/2000/svg" width="512" height="512">
<path d="M0 0 C4.34504812 4.07147101 7.788704 8.53997005 11.25 13.375 C12.10706543 14.56984009 12.10706543 14.56984009 12.98144531 15.78881836 C18.07508337 22.97044717 22.68521874 30.32994269 27 38 C27.36013184 38.62600098 27.72026367 39.25200195 28.09130859 39.89697266 C48.13072868 74.89751113 59 115.75566505 59 156 C22.7 156 -13.6 156 -51 156 C-51.99 142.14 -52.98 128.28 -54 114 C-57.25741116 84.79562408 -62.86707628 56.47817882 -70 28 C-69.22736816 27.75467529 -68.45473633 27.50935059 -67.65869141 27.2565918 C-44.39900299 19.81987908 -21.61025833 11.51237398 0 0 Z " fill="#000000" transform="translate(453,92)"/>
<path d="M0 0 C0.78310547 0.35396851 0.78310547 0.35396851 1.58203125 0.71508789 C6.84006181 3.090295 12.10239315 5.45574292 17.3671875 7.81591797 C19.64410342 8.83993895 21.91647513 9.87316622 24.1875 10.91015625 C39.35853706 17.77356495 55.21902346 22.75150135 71 28 C70.63032104 29.53648193 70.63032104 29.53648193 70.25317383 31.10400391 C60.25687335 72.80904889 54.77966831 112.91514114 52 156 C15.7 156 -20.6 156 -58 156 C-58 117.43015103 -47.88029645 79.88691535 -29.94384766 45.79785156 C-29.04647523 44.08852653 -28.1691504 42.36872093 -27.29296875 40.6484375 C-19.71593982 26.06221319 -9.95917416 13.02221913 0 0 Z " fill="#000000" transform="translate(58,92)"/>
<path d="M0 0 C36.3 0 72.6 0 110 0 C110 16.52762894 110 16.52762894 108.875 24.75 C108.67813599 26.20019531 108.67813599 26.20019531 108.47729492 27.6796875 C104.50226297 55.14274646 96.12071542 81.0869451 84 106 C83.64325195 106.73412109 83.28650391 107.46824219 82.91894531 108.22460938 C74.57975587 125.14713653 63.91194098 140.41490691 52 155 C47.48687039 153.66358783 43.42620334 151.80672342 39.22607422 149.72558594 C22.64004744 141.51196877 5.38637042 135.03362329 -12.37744141 129.85058594 C-14.26838579 129.28718384 -16.13731488 128.65076628 -18 128 C-19.48722902 125.02554196 -18.42605297 123.21383578 -17.55859375 120.03515625 C-17.05815552 118.14953979 -17.05815552 118.14953979 -16.54760742 116.22583008 C-16.36652435 115.54936432 -16.18544128 114.87289856 -15.99887085 114.17593384 C-5.99689894 76.52077967 -2.59438776 38.91581646 0 0 Z " fill="#000000" transform="translate(402,265)"/>
<path d="M0 0 C36.3 0 72.6 0 110 0 C110.99 13.86 111.98 27.72 113 42 C116.32983914 70.82033186 121.53574116 98.96302775 129 127 C123.48463767 129.55749394 117.82611961 131.37416405 112.03515625 133.21069336 C94.91476255 138.6520226 78.19873859 145.06265429 62.53125 153.97265625 C60 155 60 155 57.97265625 154.625 C54.9447166 152.13069724 52.74852124 149.15378041 50.4375 146 C49.9122876 145.2886792 49.3870752 144.5773584 48.84594727 143.84448242 C23.28663896 108.67502758 6.75046141 67.54283275 1.1875 24.4375 C1.00151245 23.01207886 1.00151245 23.01207886 0.81176758 21.55786133 C-0.05065155 14.23842061 0 7.4928646 0 0 Z " fill="#000000" transform="translate(0,265)"/>
<path d="M0 0 C7.17552762 25.83445983 12.436321 51.72837996 15.375 78.375 C15.4606723 79.11859772 15.5463446 79.86219543 15.63461304 80.62832642 C17.24431826 94.86110439 17 108.53364866 17 123 C-22.27 123 -61.54 123 -102 123 C-102 86.04 -102 49.08 -102 11 C-89.625 10.505 -89.625 10.505 -77 10 C-71.99912747 9.62088991 -67.04371487 9.21798845 -62.0625 8.6875 C-60.20226196 8.49510742 -60.20226196 8.49510742 -58.30444336 8.29882812 C-41.74333656 6.5194921 -25.21824328 4.13866082 -8.953125 0.515625 C-5.90994916 -0.01572316 -3.08276453 -0.09229834 0 0 Z " fill="#000000" transform="translate(367,125)"/>
<path d="M0 0 C6.99398051 0.5243421 13.75394499 1.43027221 20.625 2.8125 C30.43384145 4.69268049 40.27561446 6.00564403 50.1875 7.1875 C51.2439975 7.31410507 51.2439975 7.31410507 52.32183838 7.44326782 C68.88931146 9.41738079 85.27173272 10.33086931 102 11 C102 47.96 102 84.92 102 123 C62.73 123 23.46 123 -17 123 C-17 92.34935262 -17 92.34935262 -15.4375 78.625 C-15.35207947 77.8405954 -15.26665894 77.0561908 -15.1786499 76.24801636 C-12.3389574 50.43014043 -7.07507138 24.98303595 0 0 Z " fill="#000000" transform="translate(145,125)"/>
<path d="M0 0 C39.27 0 78.54 0 119 0 C119 29.27076356 119 29.27076356 117.875 39.875 C117.67813599 41.78937866 117.67813599 41.78937866 117.47729492 43.74243164 C114.5893486 70.65052286 109.00638587 96.88796525 102 123 C94.70766811 122.30987395 87.62343373 121.02489076 80.4375 119.625 C53.68812739 114.59834481 27.35535536 112.95395395 0 111 C0 74.37 0 37.74 0 0 Z " fill="#000000" transform="translate(265,265)"/>
<path d="M0 0 C39.27 0 78.54 0 119 0 C119 36.63 119 73.26 119 111 C98.21 112.485 98.21 112.485 77 114 C58.81582069 116.05858634 41.09846335 118.64474878 23.25708008 122.60449219 C21 123 21 123 17 123 C9.64832638 95.60111555 4.02903742 68.11493667 1.125 39.875 C1.00471436 38.74118896 0.88442871 37.60737793 0.76049805 36.43920898 C-0.35744414 24.21285289 0 12.4250147 0 0 Z " fill="#000000" transform="translate(128,265)"/>
<path d="M0 0 C0 39.27 0 78.54 0 119 C-23.29891907 116.41123121 -42.72852431 101.76077662 -57.46484375 84.03515625 C-71.31016479 66.66493906 -96 33.70450518 -96 11 C-64.43492784 4.41123349 -32.30089773 0 0 0 Z " fill="#000000" transform="translate(247,393)"/>
<path d="M0 0 C32.77639727 1.17058562 64.02182357 4.38113297 96 11 C86.51151306 40.51685267 71.74710619 67.92283419 51 91 C50.34773438 91.73605469 49.69546875 92.47210938 49.0234375 93.23046875 C37.51014032 105.50315362 20.66701036 116.03383714 4 119 C2.68 119 1.36 119 0 119 C0 79.73 0 40.46 0 0 Z " fill="#000000" transform="translate(265,393)"/>
<path d="M0 0 C0 39.27 0 78.54 0 119 C-11.66645424 119 -22.94145005 118.83630585 -34.5 117.75 C-35.58619629 117.65112991 -35.58619629 117.65112991 -36.69433594 117.55026245 C-56.71141193 115.71629296 -76.45746613 112.74676533 -96 108 C-81.5736207 68.26140209 -60.3841569 24.87064055 -20.375 5.5625 C-14.11546303 2.85131405 -6.91957188 0 0 0 Z " fill="#000000" transform="translate(247,0)"/>
<path d="M0 0 C16.28615158 3.48988962 16.28615158 3.48988962 22.125 6.625 C23.11874634 7.14006104 23.11874634 7.14006104 24.13256836 7.66552734 C30.60321214 11.12640629 36.32737417 15.3453147 42 20 C42.67546875 20.53496094 43.3509375 21.06992187 44.046875 21.62109375 C48.55763076 25.30354701 52.28958671 29.52662294 56 34 C56.61617188 34.72832031 57.23234375 35.45664062 57.8671875 36.20703125 C75.16552859 57.15261293 86.81139299 81.58385703 96 107 C91.497922 110.00138534 86.64914272 110.41729122 81.375 111.375 C80.19454102 111.59124023 79.01408203 111.80748047 77.79785156 112.03027344 C68.14923716 113.73739384 58.47576602 115.07383617 48.75 116.25 C48.07233582 116.33272156 47.39467163 116.41544312 46.69647217 116.50067139 C31.03921916 118.39208465 15.83392605 119 0 119 C0 79.73 0 40.46 0 0 Z " fill="#000000" transform="translate(265,0)"/>
<path d="M0 0 C0.26925293 0.81114258 0.26925293 0.81114258 0.54394531 1.63867188 C11.26637517 33.49884329 27.42967662 61.55565947 50.38671875 86.140625 C53.02385927 89.02610611 55.52017334 91.97952645 58 95 C54.20457914 96.89771043 49.56466557 94.31915323 45.6875 93.125 C44.65874756 92.80909912 43.62999512 92.49319824 42.57006836 92.16772461 C2.22198607 79.4127238 -34.42678728 56.16864653 -64 26 C-63 23 -63 23 -61.47558594 21.96020508 C-60.81848633 21.64978271 -60.16138672 21.33936035 -59.484375 21.01953125 C-58.73865234 20.66415283 -57.99292969 20.30877441 -57.22460938 19.94262695 C-56.40798828 19.56968506 -55.59136719 19.19674316 -54.75 18.8125 C-53.90244141 18.41957764 -53.05488281 18.02665527 -52.18164062 17.62182617 C-39.25788165 11.72920749 -25.95600095 6.83944925 -12.4375 2.5 C-11.64601562 2.24452393 -10.85453125 1.98904785 -10.0390625 1.72583008 C-6.50804807 0.62625301 -3.7309563 0 0 0 Z " fill="#000000" transform="translate(135,409)"/>
<path d="M0 0 C6.1392152 0.57665022 11.60360642 1.90213426 17.4375 3.875 C18.33855469 4.17962158 19.23960937 4.48424316 20.16796875 4.7980957 C57.87076043 17.91616914 95.43191485 39.64564184 122 70 C122 70.66 122 71.32 122 72 C101.7168119 82.16400288 81.02583667 90.46573043 59 96 C58.731875 95.35417969 58.46375 94.70835938 58.1875 94.04296875 C57.32979696 91.98053151 56.46869323 89.91950737 55.60546875 87.859375 C54.46337088 85.12749405 53.34634941 82.38647196 52.23828125 79.640625 C41.04648503 52.14376437 25.67232665 28.12616055 5.3125 6.5234375 C3.38627945 4.4215144 1.65386478 2.31758682 0 0 Z " fill="#000000" transform="translate(319,8)"/>
<path d="M0 0 C21.82528313 4.40193144 43.79588669 12.6959915 63 24 C58.96851774 33.29538655 48.71367089 39.88538214 41 46 C39.92761957 46.87406123 38.85602952 47.7490929 37.78515625 48.625 C28.9552614 55.78527462 19.69381143 62.06874003 10 68 C9.35869141 68.39429199 8.71738281 68.78858398 8.05664062 69.19482422 C-11.50574687 81.07922802 -36.11080294 93.18227422 -59 96 C-56.0901706 91.85569752 -53.14001209 88.0291833 -49.4375 84.5625 C-29.80294891 65.3393395 -15.64499762 39.14500022 -5.859375 13.7265625 C-4.0634367 9.0783652 -2.06648181 4.53349723 0 0 Z " fill="#000000" transform="translate(378,409)"/>
<path d="M0 0 C-0.68964844 0.66644531 -1.37929687 1.33289063 -2.08984375 2.01953125 C-8.5414503 8.34723864 -14.46430146 14.83836623 -20 22 C-20.62575928 22.79519043 -20.62575928 22.79519043 -21.26416016 23.60644531 C-37.68011171 44.56582621 -49.75679627 68.7531682 -58 94 C-79.91391031 91.74558224 -102.54457096 80.9118353 -122 71 C-119.99883532 66.62496257 -117.13398187 63.79041941 -113.75 60.4375 C-113.12738281 59.81907227 -112.50476563 59.20064453 -111.86328125 58.56347656 C-106.15453695 52.98969755 -100.11196474 48.01261814 -93.70605469 43.26611328 C-92.07607184 42.05645514 -90.4633311 40.82366661 -88.8515625 39.58984375 C-71.80914533 26.76230222 -23.05595662 -7.56277393 0 0 Z " fill="#000000" transform="translate(193,9)"/>
</svg>
