<?xml version="1.0" standalone="no"?>
<!DOCTYPE svg PUBLIC "-//W3C//DTD SVG 20010904//EN"
 "http://www.w3.org/TR/2001/REC-SVG-20010904/DTD/svg10.dtd">
<svg version="1.0" xmlns="http://www.w3.org/2000/svg"
 width="512.000000pt" height="512.000000pt" viewBox="0 0 512.000000 512.000000"
 preserveAspectRatio="xMidYMid meet">
<metadata>
Created by potrace 1.16, written by Peter Selinger 2001-2019
</metadata>
<g transform="translate(0.000000,512.000000) scale(0.100000,-0.100000)"
fill="#000000" stroke="none">
<path d="M2385 4474 c-191 -49 -322 -147 -398 -300 l-26 -51 24 -59 c23 -55
25 -71 25 -245 0 -476 -127 -1274 -295 -1840 l-37 -126 -41 8 c-69 13 -209 10
-272 -6 -169 -44 -296 -184 -351 -385 -25 -90 -25 -309 0 -400 46 -170 150
-312 268 -366 55 -25 77 -29 168 -32 98 -2 112 0 203 31 118 42 228 107 336
199 44 37 88 68 98 68 63 0 360 -75 673 -168 429 -129 531 -152 700 -159 191
-8 297 20 417 111 158 119 247 316 246 546 0 123 -15 198 -58 296 -25 56 -118
164 -141 164 -8 0 -31 -19 -52 -42 -52 -57 -155 -134 -228 -168 -110 -53 -221
-74 -379 -74 -158 1 -257 16 -451 69 -71 20 -183 49 -249 66 -66 17 -137 34
-157 40 l-36 9 24 63 c104 263 284 889 374 1296 87 394 124 660 124 891 0 253
-35 371 -136 466 -76 71 -143 97 -257 100 -53 2 -105 1 -116 -2z"/>
</g>
</svg>
