<?xml version="1.0" standalone="no"?>
<!DOCTYPE svg PUBLIC "-//W3C//DTD SVG 20010904//EN"
 "http://www.w3.org/TR/2001/REC-SVG-20010904/DTD/svg10.dtd">
<svg version="1.0" xmlns="http://www.w3.org/2000/svg"
 width="512.000000pt" height="512.000000pt" viewBox="0 0 512.000000 512.000000"
 preserveAspectRatio="xMidYMid meet">

<g transform="translate(0.000000,512.000000) scale(0.100000,-0.100000)"
fill="#000000" stroke="none">
<path d="M2290 4629 c-60 -24 -100 -85 -100 -151 0 -57 26 -97 97 -149 101
-75 184 -174 242 -286 l21 -43 -598 0 c-390 0 -619 -4 -658 -11 -168 -31 -313
-160 -364 -326 -15 -50 -20 -93 -20 -183 0 -105 2 -121 23 -151 12 -19 43 -45
69 -57 63 -31 115 -24 169 25 47 42 59 81 59 189 0 89 16 126 73 168 l28 21
1229 0 1229 0 28 -21 c57 -42 73 -79 73 -168 0 -108 12 -147 59 -189 54 -49
106 -56 169 -25 26 12 57 38 69 57 21 30 23 46 23 151 0 90 -5 133 -20 183
-51 166 -196 295 -364 326 -37 7 -223 11 -495 11 l-436 0 -34 85 c-88 220
-243 413 -413 518 -64 38 -108 46 -158 26z"/>
<path d="M1736 3337 c-78 -44 -104 -144 -57 -220 46 -75 11 -71 731 -77 l645
-5 -171 -175 c-258 -265 -337 -375 -368 -508 l-13 -57 -536 -5 c-520 -5 -536
-6 -564 -26 -44 -32 -76 -105 -68 -155 9 -53 64 -115 113 -129 23 -6 231 -10
540 -10 l502 0 0 -403 c0 -329 -3 -414 -15 -462 -38 -147 -124 -249 -242 -285
-36 -11 -85 -20 -109 -20 -171 0 -232 -215 -86 -298 48 -27 111 -29 220 -6
208 42 371 171 467 369 78 163 78 163 83 662 l3 442 537 3 537 3 38 24 c51 31
81 91 74 149 -5 50 -29 87 -77 120 l-33 22 -528 0 c-291 0 -529 3 -529 8 0 31
113 164 326 383 290 299 356 434 281 571 -25 47 -78 84 -137 97 -29 7 -315 11
-785 11 l-740 0 -39 -23z"/>
</g>
</svg>
