<?xml version="1.0" standalone="no"?>
<!DOCTYPE svg PUBLIC "-//W3C//DTD SVG 20010904//EN"
 "http://www.w3.org/TR/2001/REC-SVG-20010904/DTD/svg10.dtd">
<svg version="1.0" xmlns="http://www.w3.org/2000/svg"
 width="512.000000pt" height="512.000000pt" viewBox="0 0 512.000000 512.000000"
 preserveAspectRatio="xMidYMid meet">
<metadata>
Created by potrace 1.16, written by Peter Selinger 2001-2019
</metadata>
<g transform="translate(0.000000,512.000000) scale(0.100000,-0.100000)"
fill="#000000" stroke="none">
<path d="M4470 4381 c-555 -121 -942 -656 -1249 -1726 -22 -77 -80 -297 -130
-490 -114 -443 -151 -555 -204 -612 -28 -32 -53 -29 -92 10 -38 38 -59 101
-76 226 -15 110 -6 522 15 721 40 370 113 794 172 998 15 51 16 52 55 52 53 0
152 34 205 71 105 72 171 256 130 364 -21 54 -87 116 -149 140 -68 26 -192 18
-270 -18 -65 -29 -163 -118 -205 -184 -15 -23 -31 -43 -35 -43 -4 0 -53 13
-108 30 -383 114 -884 170 -1107 124 -316 -65 -512 -291 -512 -593 0 -305 219
-521 527 -521 130 0 256 50 359 143 l46 42 -54 37 c-112 78 -166 201 -138 317
24 101 116 168 273 198 94 18 340 14 488 -8 l85 -12 -43 -76 c-25 -42 -145
-276 -267 -521 -232 -463 -294 -577 -403 -745 -211 -323 -430 -522 -660 -598
-241 -79 -446 -46 -601 98 -71 65 -109 117 -164 220 l-37 70 -54 -56 c-65 -67
-136 -204 -169 -324 -19 -68 -22 -107 -22 -265 -1 -184 -1 -186 32 -280 65
-187 160 -301 317 -378 108 -54 173 -66 345 -66 127 0 171 4 244 22 192 48
352 141 519 301 275 264 495 656 827 1473 24 59 45 106 46 105 2 -1 -17 -85
-42 -186 -57 -239 -97 -431 -126 -611 -19 -121 -22 -183 -22 -370 0 -199 3
-234 22 -305 72 -263 202 -379 459 -410 195 -24 335 113 454 445 54 154 87
272 189 680 102 410 144 565 197 725 130 400 267 659 438 831 171 173 355 254
580 254 113 0 162 -11 202 -44 79 -64 219 58 272 239 19 64 23 94 19 183 -3
92 -7 115 -31 164 -32 65 -90 121 -156 151 -66 30 -270 34 -391 8z"/>
</g>
</svg>
