<?xml version="1.0" standalone="no"?>
<!DOCTYPE svg PUBLIC "-//W3C//DTD SVG 20010904//EN"
 "http://www.w3.org/TR/2001/REC-SVG-20010904/DTD/svg10.dtd">
<svg version="1.0" xmlns="http://www.w3.org/2000/svg"
 width="512.000000pt" height="512.000000pt" viewBox="0 0 512.000000 512.000000"
 preserveAspectRatio="xMidYMid meet">
<metadata>
Created by potrace 1.16, written by Peter Selinger 2001-2019
</metadata>
<g transform="translate(0.000000,512.000000) scale(0.100000,-0.100000)"
fill="#000000" stroke="none">
<path d="M3530 4664 c-160 -29 -211 -41 -305 -71 -497 -159 -899 -545 -1116
-1073 -28 -69 -52 -126 -54 -128 -1 -1 -85 -16 -186 -33 -419 -69 -679 -161
-879 -309 -89 -67 -192 -176 -239 -254 -130 -216 -147 -490 -44 -706 54 -113
167 -222 293 -283 131 -64 207 -81 360 -81 144 0 216 15 326 69 72 35 189 136
182 157 -2 6 -22 16 -44 23 -168 50 -284 216 -284 405 0 167 94 311 261 400
51 27 160 70 178 70 3 0 5 -52 3 -115 -15 -544 370 -942 883 -911 395 23 732
272 952 702 l51 101 7 -126 c19 -319 -36 -621 -148 -821 -57 -102 -171 -215
-263 -263 -212 -110 -452 -81 -604 72 -71 71 -101 135 -109 229 l-6 73 -55
-39 c-93 -67 -152 -168 -185 -316 -14 -62 -16 -106 -12 -215 6 -157 21 -221
80 -341 71 -145 225 -283 396 -355 286 -121 633 -105 924 41 324 164 509 442
563 848 20 148 14 396 -16 681 -11 105 -27 260 -36 345 -9 85 -16 225 -17 310
0 175 16 266 64 362 63 125 19 219 -136 288 -84 39 -158 53 -251 49 l-80 -4
91 59 c370 242 490 635 278 914 -57 74 -133 133 -228 178 -123 57 -171 66
-380 69 -104 2 -201 1 -215 -1z m525 -375 c129 -66 128 -194 -2 -330 -137
-144 -396 -266 -765 -359 -136 -34 -388 -83 -394 -77 -3 3 15 43 39 90 131
254 375 492 632 618 132 64 233 89 350 86 75 -2 99 -6 140 -28z m-144 -892
c-12 -13 -35 -58 -51 -99 -41 -108 -125 -271 -183 -357 -62 -93 -183 -220
-263 -277 -252 -180 -504 -136 -594 104 -27 72 -48 251 -30 262 7 4 49 15 94
25 288 62 769 224 973 329 82 42 82 42 54 13z"/>
</g>
</svg>
