<?xml version="1.0" standalone="no"?>
<!DOCTYPE svg PUBLIC "-//W3C//DTD SVG 20010904//EN"
 "http://www.w3.org/TR/2001/REC-SVG-20010904/DTD/svg10.dtd">
<svg version="1.0" xmlns="http://www.w3.org/2000/svg"
 width="512.000000pt" height="512.000000pt" viewBox="0 0 512.000000 512.000000"
 preserveAspectRatio="xMidYMid meet">

<g transform="translate(0.000000,512.000000) scale(0.100000,-0.100000)"
fill="#000000" stroke="none">
<path d="M2320 4070 c-306 -43 -556 -209 -670 -445 -56 -116 -72 -182 -77
-331 -4 -111 -2 -143 16 -215 50 -196 152 -343 346 -494 101 -78 177 -127 418
-266 255 -148 357 -218 448 -310 130 -131 185 -279 160 -431 -33 -203 -170
-303 -376 -276 -129 18 -203 79 -344 287 -120 176 -204 266 -287 307 -52 25
-69 29 -144 28 -63 0 -97 -6 -130 -21 -140 -64 -220 -217 -220 -419 0 -188 41
-235 239 -269 52 -9 166 -38 255 -65 308 -93 393 -109 602 -117 614 -23 1017
218 1101 660 19 99 13 281 -12 372 -22 80 -94 227 -144 295 -139 186 -327 333
-734 574 -370 219 -502 324 -563 446 -97 192 56 442 260 428 119 -8 184 -61
316 -258 197 -296 308 -381 474 -368 200 16 328 186 329 438 0 132 -27 201
-94 235 -15 8 -84 26 -152 40 -69 13 -203 50 -298 80 -96 30 -217 64 -269 76
-109 23 -348 33 -450 19z"/>
</g>
</svg>
