<?xml version="1.0" standalone="no"?>
<!DOCTYPE svg PUBLIC "-//W3C//DTD SVG 20010904//EN"
 "http://www.w3.org/TR/2001/REC-SVG-20010904/DTD/svg10.dtd">
<svg version="1.0" xmlns="http://www.w3.org/2000/svg"
 width="512.000000pt" height="512.000000pt" viewBox="0 0 512.000000 512.000000"
 preserveAspectRatio="xMidYMid meet">

<g transform="translate(0.000000,512.000000) scale(0.100000,-0.100000)"
fill="#000000" stroke="none">
<path d="M2910 4256 c-340 -49 -640 -189 -847 -395 -187 -185 -283 -392 -283
-605 0 -150 44 -276 134 -385 l44 -54 -86 -44 c-138 -71 -229 -139 -358 -268
-268 -268 -411 -590 -391 -884 8 -115 28 -188 84 -301 39 -81 60 -109 137
-185 106 -105 199 -162 344 -211 175 -59 243 -69 482 -69 239 1 333 15 507 76
351 124 636 386 717 658 34 114 15 289 -41 394 -46 83 -158 168 -256 192 -27
7 -27 7 -27 -46 0 -237 -375 -486 -761 -506 -238 -12 -423 39 -518 142 -49 53
-67 92 -76 161 -14 108 50 285 154 429 60 82 190 216 267 276 l55 42 87 -21
c266 -65 585 -49 662 33 46 49 19 137 -58 188 -111 73 -294 90 -563 51 -43 -6
-49 -4 -88 31 -54 49 -99 143 -107 222 -30 289 264 629 624 723 96 25 280 27
367 5 89 -24 155 -64 193 -119 67 -100 31 -236 -86 -317 -49 -35 -122 -60
-215 -74 l-38 -6 23 -40 c29 -52 112 -131 168 -159 170 -87 394 -101 540 -34
218 100 340 353 286 595 -54 245 -231 409 -521 485 -86 22 -126 27 -280 30
-117 2 -213 -2 -275 -10z"/>
</g>
</svg>
