<?xml version="1.0" standalone="no"?>
<!DOCTYPE svg PUBLIC "-//W3C//DTD SVG 20010904//EN"
 "http://www.w3.org/TR/2001/REC-SVG-20010904/DTD/svg10.dtd">
<svg version="1.0" xmlns="http://www.w3.org/2000/svg"
 width="512.000000pt" height="512.000000pt" viewBox="0 0 512.000000 512.000000"
 preserveAspectRatio="xMidYMid meet">

<g transform="translate(0.000000,512.000000) scale(0.100000,-0.100000)"
fill="#000000" stroke="none">
<path d="M1935 4036 c-111 -21 -222 -55 -319 -97 -50 -22 -94 -43 -99 -48 -7
-7 58 -261 129 -508 l15 -52 82 35 c150 65 241 87 357 88 122 1 169 -16 208
-74 21 -31 23 -44 20 -117 -3 -73 -6 -85 -34 -119 -62 -77 -175 -109 -370
-102 l-114 3 0 -291 0 -291 208 1 208 1 59 -30 c108 -56 160 -177 135 -317
-15 -78 -29 -106 -78 -150 -81 -73 -227 -76 -365 -6 -32 15 -91 61 -133 100
-148 141 -264 358 -383 720 l-33 98 -31 -13 c-18 -8 -143 -58 -279 -113 -136
-54 -248 -103 -248 -108 0 -18 96 -278 147 -396 172 -397 407 -680 676 -816
169 -86 334 -120 541 -111 360 15 642 180 770 451 49 103 69 194 72 321 l3
110 38 7 c21 5 48 10 60 13 l23 5 2 -582 3 -583 323 -3 322 -2 0 1175 0 1175
203 2 202 3 3 288 2 287 -525 0 -525 0 0 -590 0 -590 -27 -11 c-91 -35 -184
-51 -299 -53 -106 -1 -124 1 -143 18 l-21 19 75 79 c125 133 185 281 186 458
2 279 -144 507 -406 636 -140 68 -222 86 -410 90 -106 2 -184 -1 -230 -10z"/>
</g>
</svg>
