<?xml version="1.0" standalone="no"?>
<!DOCTYPE svg PUBLIC "-//W3C//DTD SVG 20010904//EN"
 "http://www.w3.org/TR/2001/REC-SVG-20010904/DTD/svg10.dtd">
<svg version="1.0" xmlns="http://www.w3.org/2000/svg"
 width="512.000000pt" height="512.000000pt" viewBox="0 0 512.000000 512.000000"
 preserveAspectRatio="xMidYMid meet">
<metadata>
Created by potrace 1.16, written by Peter Selinger 2001-2019
</metadata>
<g transform="translate(0.000000,512.000000) scale(0.100000,-0.100000)"
fill="#000000" stroke="none">
<path d="M2389 4410 c-98 -12 -230 -47 -335 -90 -487 -199 -807 -668 -831
-1220 -36 -815 489 -1415 1267 -1447 154 -6 301 6 410 33 86 22 218 84 254
120 29 29 29 29 21 4 -4 -14 -25 -63 -46 -108 -70 -152 -205 -262 -379 -309
-55 -15 -102 -18 -297 -16 l-233 2 0 -341 0 -340 273 5 c347 6 423 21 652 132
145 70 263 155 377 273 179 184 291 392 351 647 21 89 21 110 24 1323 l4 1232
-88 0 -88 0 -124 -150 -123 -149 -87 71 c-318 263 -644 370 -1002 328z m293
-685 c38 -8 103 -32 146 -55 275 -142 436 -469 378 -760 -71 -348 -377 -601
-696 -577 -267 21 -474 186 -567 452 -26 76 -28 89 -28 255 0 171 1 177 31
263 38 105 82 180 146 247 144 151 378 220 590 175z"/>
</g>
</svg>
