<?xml version="1.0" standalone="no"?>
<!DOCTYPE svg PUBLIC "-//W3C//DTD SVG 20010904//EN"
 "http://www.w3.org/TR/2001/REC-SVG-20010904/DTD/svg10.dtd">
<svg version="1.0" xmlns="http://www.w3.org/2000/svg"
 width="512.000000pt" height="512.000000pt" viewBox="0 0 512.000000 512.000000"
 preserveAspectRatio="xMidYMid meet">
<metadata>
Created by potrace 1.16, written by Peter Selinger 2001-2019
</metadata>
<g transform="translate(0.000000,512.000000) scale(0.100000,-0.100000)"
fill="#000000" stroke="none">
<path d="M830 4311 l0 -149 128 -4 c102 -2 135 -7 167 -23 54 -27 91 -91 105
-180 17 -110 8 -2787 -9 -2841 -17 -55 -66 -113 -110 -131 -22 -9 -84 -17
-158 -21 l-123 -5 0 -148 0 -149 600 0 600 0 0 150 0 150 -112 0 c-178 1 -230
20 -267 100 -14 32 -16 155 -19 1260 -1 696 1 1220 6 1215 5 -6 366 -655 802
-1442 l793 -1433 323 0 323 0 3 1648 c3 1549 4 1650 21 1700 40 116 106 152
284 152 l103 0 0 150 0 150 -600 0 -600 0 0 -149 0 -149 128 -4 c146 -4 175
-15 222 -79 16 -22 34 -64 40 -92 7 -35 9 -376 8 -1063 l-3 -1012 -689 1274
-690 1274 -638 0 -638 0 0 -149z"/>
</g>
</svg>
