<?xml version="1.0" standalone="no"?>
<!DOCTYPE svg PUBLIC "-//W3C//DTD SVG 20010904//EN"
 "http://www.w3.org/TR/2001/REC-SVG-20010904/DTD/svg10.dtd">
<svg version="1.0" xmlns="http://www.w3.org/2000/svg"
 width="512.000000pt" height="512.000000pt" viewBox="0 0 512.000000 512.000000"
 preserveAspectRatio="xMidYMid meet">

<g transform="translate(0.000000,512.000000) scale(0.100000,-0.100000)"
fill="#000000" stroke="none">
<path d="M1330 4886 c-175 -47 -274 -238 -215 -415 21 -64 92 -144 159 -179
l51 -27 1235 0 1235 0 51 27 c28 15 72 50 97 78 139 155 89 404 -101 497 l-57
28 -1205 2 c-931 1 -1215 -1 -1250 -11z"/>
<path d="M671 3964 c-70 -19 -111 -44 -160 -100 -135 -154 -83 -403 105 -495
l49 -24 1882 -3 c1881 -2 1882 -2 1937 19 102 38 185 145 201 260 8 57 -14
153 -49 207 -33 53 -98 107 -155 129 -44 17 -139 18 -1901 20 -1601 2 -1862 0
-1909 -13z"/>
<path d="M2330 3016 c-402 -72 -743 -300 -962 -642 -214 -334 -270 -784 -146
-1173 198 -624 829 -1040 1473 -972 348 37 633 176 875 428 260 269 393 597
393 968 0 164 -20 294 -68 441 -155 473 -549 827 -1048 939 -99 23 -415 29
-517 11z m416 -646 c274 -69 489 -286 559 -565 25 -99 24 -266 -3 -366 -100
-373 -461 -620 -834 -570 -389 51 -670 368 -670 756 -1 137 18 220 77 340 99
202 278 348 495 404 104 28 270 28 376 1z"/>
</g>
</svg>
