<?xml version="1.0" standalone="no"?>
<!DOCTYPE svg PUBLIC "-//W3C//DTD SVG 20010904//EN"
 "http://www.w3.org/TR/2001/REC-SVG-20010904/DTD/svg10.dtd">
<svg version="1.0" xmlns="http://www.w3.org/2000/svg"
 width="512.000000pt" height="512.000000pt" viewBox="0 0 512.000000 512.000000"
 preserveAspectRatio="xMidYMid meet">

<g transform="translate(0.000000,512.000000) scale(0.100000,-0.100000)"
fill="#000000" stroke="none">
<path d="M1955 4603 c-233 -49 -442 -233 -544 -477 -178 -429 -239 -1494 -166
-2931 26 -522 25 -510 76 -569 79 -90 231 -133 434 -123 183 9 303 48 390 129
66 60 70 81 55 284 -46 621 84 1463 253 1642 34 36 85 44 107 17 19 -23 8
-120 -44 -395 -136 -716 -138 -1075 -8 -1340 98 -200 285 -298 547 -288 107 4
118 7 189 41 272 135 454 534 626 1371 38 186 39 200 24 223 -34 53 -134 70
-178 31 -21 -19 -30 -45 -52 -148 -68 -328 -187 -600 -262 -600 -97 0 -107
112 -51 525 27 200 33 273 33 440 1 167 -2 210 -17 260 -83 268 -321 436 -622
437 -122 0 -222 -28 -319 -91 -75 -49 -176 -152 -234 -238 -41 -61 -117 -206
-142 -273 -7 -19 -18 -39 -23 -45 -21 -22 23 353 68 574 107 524 304 845 579
941 l51 18 3 52 c14 238 -195 479 -463 535 -88 18 -219 18 -310 -2z"/>
</g>
</svg>
