<?xml version="1.0" standalone="no"?>
<!DOCTYPE svg PUBLIC "-//W3C//DTD SVG 20010904//EN"
 "http://www.w3.org/TR/2001/REC-SVG-20010904/DTD/svg10.dtd">
<svg version="1.0" xmlns="http://www.w3.org/2000/svg"
 width="512.000000pt" height="512.000000pt" viewBox="0 0 512.000000 512.000000"
 preserveAspectRatio="xMidYMid meet">

<g transform="translate(0.000000,512.000000) scale(0.100000,-0.100000)"
fill="#000000" stroke="none">
<path d="M3028 4890 c-10 -6 -18 -23 -18 -38 0 -37 53 -145 102 -211 l41 -55
-12 -805 c-7 -443 -13 -806 -14 -807 -1 -1 -162 -6 -357 -13 -195 -6 -413 -14
-484 -18 l-129 -6 5 79 c4 65 15 104 61 221 115 292 106 328 -106 434 -111 56
-147 86 -147 123 0 34 19 43 145 61 182 27 262 71 318 173 57 104 43 210 -39
301 -56 62 -109 95 -188 115 -45 12 -69 13 -98 6 -38 -11 -38 -11 -38 -63 0
-150 -166 -328 -485 -520 -137 -83 -393 -211 -532 -268 -46 -18 -83 -36 -83
-40 0 -4 14 -18 32 -30 44 -31 136 -37 230 -14 39 9 136 41 217 70 80 29 160
55 178 58 89 17 132 -115 147 -448 3 -66 2 -160 -2 -210 l-7 -90 -45 -7 c-25
-4 -288 -30 -585 -58 -600 -56 -835 -84 -873 -103 -14 -6 -30 -20 -36 -30 -35
-56 165 -251 316 -309 97 -36 169 -22 673 137 339 107 491 149 509 142 42 -16
54 -388 18 -562 -74 -368 -266 -711 -632 -1135 -101 -117 -140 -175 -140 -212
0 -26 3 -28 38 -28 145 0 685 399 847 625 129 181 218 418 264 700 17 108 29
237 47 528 4 63 11 102 20 112 27 27 185 48 489 64 99 6 241 11 315 12 l135 2
7 -394 c4 -217 12 -693 17 -1059 9 -598 12 -676 30 -775 31 -170 76 -302 114
-334 29 -24 105 113 151 272 68 235 76 378 83 1395 6 946 0 872 76 893 62 17
397 5 747 -26 337 -30 499 -31 527 -2 27 26 22 94 -12 164 -62 126 -225 247
-370 274 -123 23 -438 -8 -774 -77 -91 -18 -166 -32 -167 -31 -7 7 -20 918
-14 1047 7 182 22 226 109 325 60 68 71 90 71 146 0 32 -7 47 -42 85 -65 70
-255 157 -436 199 -89 21 -193 28 -214 15z"/>
</g>
</svg>
