<?xml version="1.0" standalone="no"?>
<!DOCTYPE svg PUBLIC "-//W3C//DTD SVG 20010904//EN"
 "http://www.w3.org/TR/2001/REC-SVG-20010904/DTD/svg10.dtd">
<svg version="1.0" xmlns="http://www.w3.org/2000/svg"
 width="1024.000000pt" height="1024.000000pt" viewBox="0 0 1024.000000 1024.000000"
 preserveAspectRatio="xMidYMid meet">

<g transform="translate(0.000000,1024.000000) scale(0.100000,-0.100000)"
fill="#000000" stroke="none">
<path d="M5622 7775 c-35 -29 -49 -31 -74 -8 -17 15 -18 15 -18 -6 0 -14 9
-25 24 -31 33 -12 106 22 106 50 0 25 -2 25 -38 -5z"/>
<path d="M5680 7692 c1 -4 7 -18 15 -32 l14 -25 1 26 c0 15 -7 29 -15 33 -8 3
-15 2 -15 -2z"/>
<path d="M5510 7527 c0 -8 7 -20 15 -27 12 -10 15 -10 15 3 0 8 -7 20 -15 27
-12 10 -15 10 -15 -3z"/>
<path d="M3742 7420 c-24 -3 -48 -13 -52 -20 -5 -8 -8 -15 -7 -16 1 -1 29 1
62 4 46 5 61 11 63 25 4 18 1 18 -66 7z"/>
<path d="M5330 7271 c0 -15 30 -41 47 -41 13 0 14 2 2 18 -24 30 -49 42 -49
23z"/>
<path d="M6205 7259 c-7 -21 2 -33 66 -89 114 -100 183 -172 201 -210 10 -19
18 -28 18 -20 0 20 -49 112 -76 142 -11 13 -51 48 -88 78 -38 30 -79 70 -91
88 -23 33 -23 34 -30 11z"/>
<path d="M3595 7245 c-16 -13 -26 -27 -22 -31 8 -8 34 12 48 38 12 23 10 22
-26 -7z"/>
<path d="M6050 7185 c-39 -42 -113 -84 -167 -95 -52 -11 -103 -42 -103 -62 0
-7 4 -7 13 0 7 6 46 18 86 27 55 13 83 25 110 51 67 60 79 60 142 -3 72 -72
126 -116 133 -105 3 5 -26 37 -65 71 -38 34 -79 80 -92 102 -12 21 -25 39 -28
39 -3 0 -16 -11 -29 -25z"/>
<path d="M5441 7117 c7 -15 16 -27 21 -27 14 0 9 16 -13 36 -21 19 -21 19 -8
-9z"/>
<path d="M3345 7054 c-44 -24 -99 -52 -123 -63 -49 -23 -102 -69 -102 -89 0
-7 -7 -15 -15 -18 -8 -4 -15 -11 -15 -17 0 -6 -8 -20 -17 -31 -9 -12 0 -4 21
16 62 63 156 121 243 151 46 16 113 66 113 85 0 19 -18 13 -105 -34z"/>
<path d="M6020 7032 c0 -12 19 -26 26 -19 2 2 -2 10 -11 17 -9 8 -15 8 -15 2z"/>
<path d="M6626 6991 c-7 -11 3 -41 13 -41 4 0 28 -16 53 -36 58 -45 87 -45
166 -4 74 39 115 36 162 -11 27 -27 30 -28 30 -10 0 11 -14 36 -31 56 -41 47
-78 46 -164 -1 -77 -43 -92 -41 -161 16 -51 42 -59 46 -68 31z"/>
<path d="M6080 6952 c6 -13 14 -21 18 -18 3 4 -2 14 -12 24 -18 16 -18 16 -6
-6z"/>
<path d="M3490 6944 c-14 -7 -35 -14 -47 -14 -23 0 -32 -23 -13 -35 15 -9 77
21 90 44 12 24 6 25 -30 5z"/>
<path d="M5710 6935 c-13 -14 -19 -25 -13 -25 12 0 48 38 41 45 -2 3 -15 -6
-28 -20z"/>
<path d="M6490 6915 c0 -5 5 -17 10 -25 5 -8 10 -10 10 -5 0 6 -5 17 -10 25
-5 8 -10 11 -10 5z"/>
<path d="M6263 6856 c2 -6 14 -11 27 -11 13 0 25 5 27 11 2 6 -10 11 -27 11
-17 0 -29 -5 -27 -11z"/>
<path d="M6547 6793 c12 -33 63 -47 63 -18 0 8 -9 15 -19 15 -11 0 -23 5 -26
10 -10 17 -25 11 -18 -7z"/>
<path d="M2980 6733 c-30 -32 -65 -76 -78 -98 l-22 -40 33 40 c17 21 52 57 75
79 44 41 69 76 55 76 -4 0 -32 -26 -63 -57z"/>
<path d="M5541 6668 c-42 -27 -153 -58 -209 -58 -32 0 -55 8 -88 30 -34 24
-44 27 -44 15 0 -8 21 -29 48 -46 44 -29 51 -30 115 -24 77 7 161 41 196 79
30 31 26 32 -18 4z"/>
<path d="M4155 6618 c-105 -37 -177 -141 -177 -259 -2 -234 285 -347 453 -179
64 64 97 177 70 243 -6 17 -8 16 -19 -7 -16 -36 -28 -33 -50 17 -15 35 -30 49
-80 75 -34 18 -62 40 -62 48 0 8 11 25 25 38 l25 24 -22 6 c-35 9 -129 6 -163
-6z m261 -224 c20 -30 -3 -60 -39 -50 -21 5 -27 12 -27 35 0 15 3 31 7 35 13
12 45 2 59 -20z"/>
<path d="M6223 6576 c-59 -19 -128 -79 -158 -139 -32 -64 -35 -163 -6 -229 72
-168 301 -211 435 -82 73 70 96 205 52 306 -13 31 -14 31 -15 8 -3 -59 -36
-61 -72 -4 -11 19 -28 34 -37 34 -21 0 -92 47 -92 61 0 5 14 18 31 28 24 15
27 20 14 25 -27 10 -107 6 -152 -8z m201 -169 c38 -27 -2 -95 -41 -71 -22 14
-29 50 -13 70 15 17 31 18 54 1z"/>
<path d="M7082 6364 c-12 -8 -22 -24 -22 -35 0 -21 10 -25 26 -9 6 6 30 -25
67 -85 52 -84 85 -125 216 -270 47 -51 95 -119 155 -220 72 -119 89 -135 151
-135 43 0 62 6 111 38 60 39 144 122 144 143 0 6 -21 -8 -46 -30 -106 -93
-173 -122 -242 -105 -39 10 -71 50 -160 197 -26 44 -58 92 -72 108 -14 16 -36
41 -49 56 -13 16 -51 59 -85 97 -68 76 -107 135 -143 214 -14 28 -25 52 -27
52 -1 0 -12 -7 -24 -16z"/>
<path d="M5170 6202 c0 -34 40 -135 62 -159 27 -29 80 -31 107 -4 28 28 71
133 71 174 0 4 -54 7 -120 7 -110 0 -120 -2 -120 -18z"/>
<path d="M2510 5795 c0 -19 4 -35 10 -35 5 0 24 -16 41 -35 42 -46 73 -46 127
1 42 35 54 64 29 64 -8 0 -22 -9 -33 -21 -10 -12 -31 -27 -45 -34 -24 -13 -28
-12 -61 23 -19 20 -38 45 -41 55 -11 29 -27 19 -27 -18z"/>
<path d="M4780 5089 c0 -7 31 -42 68 -78 50 -48 77 -85 101 -135 62 -133 184
-229 327 -256 53 -10 76 -9 180 10 98 18 141 33 247 83 108 50 140 61 198 65
66 4 72 3 107 -25 56 -45 58 -45 120 -32 31 7 67 11 80 10 16 -2 22 3 22 18 0
34 -29 41 -82 20 -69 -27 -85 -24 -136 22 -42 39 -47 41 -91 36 -49 -7 -145
-44 -247 -95 -110 -56 -382 -95 -440 -64 -11 6 -48 24 -84 40 -89 41 -150 101
-201 197 -42 80 -89 139 -141 177 -19 13 -28 15 -28 7z"/>
<path d="M7794 4771 c-28 -42 -57 -87 -64 -101 -11 -23 -11 -24 3 -10 35 33
124 177 115 185 -2 2 -26 -32 -54 -74z"/>
<path d="M6235 4448 c4 -13 13 -32 20 -44 20 -31 116 -134 125 -134 24 0 -16
66 -80 129 -48 49 -69 65 -65 49z"/>
<path d="M6400 4180 c0 -3 7 -25 15 -50 l15 -45 -4 39 c-3 22 -10 44 -16 50
-5 5 -10 8 -10 6z"/>
<path d="M4206 3844 c-14 -26 -26 -52 -26 -58 0 -11 41 55 53 87 12 31 -1 18
-27 -29z"/>
<path d="M7643 3811 c-12 -16 -47 -49 -78 -73 -49 -38 -95 -102 -82 -114 7 -7
150 135 171 169 24 40 15 54 -11 18z"/>
<path d="M6374 3635 c4 -16 22 -55 40 -85 53 -88 67 -119 101 -223 37 -111 46
-129 34 -60 -18 96 -49 180 -105 278 -65 115 -80 134 -70 90z"/>
<path d="M7395 3379 c-19 -17 -35 -40 -35 -50 0 -18 1 -18 22 -1 33 27 68 64
68 73 0 17 -20 9 -55 -22z"/>
<path d="M4102 3290 c-18 -29 -98 -78 -154 -95 -89 -26 -138 -63 -138 -104 l0
-25 28 27 c15 15 61 38 100 51 81 28 144 72 168 118 18 35 15 58 -4 28z"/>
<path d="M7289 3209 c-19 -24 -52 -66 -72 -94 -108 -143 -208 -209 -374 -245
-112 -24 -131 -25 -155 -3 -17 15 -18 15 -18 -1 0 -41 19 -56 69 -56 115 0
275 63 367 143 59 53 228 271 222 288 -2 7 -20 -8 -39 -32z"/>
<path d="M6560 3107 c0 -7 14 -30 31 -51 18 -21 42 -63 55 -94 25 -61 31 -46
14 36 -6 27 -24 65 -41 85 -30 37 -59 49 -59 24z"/>
<path d="M5087 3053 c-4 -3 -7 -15 -7 -25 0 -28 34 -19 38 10 3 21 -16 31 -31
15z"/>
<path d="M5352 3038 c2 -12 10 -23 18 -23 22 0 19 39 -3 43 -15 3 -18 -1 -15
-20z"/>
<path d="M5243 3012 c-56 -3 -67 -14 -32 -32 26 -14 75 -4 83 17 8 20 11 19
-51 15z"/>
<path d="M3796 2764 c-47 -55 -77 -111 -69 -130 5 -15 113 139 113 162 0 19 0
19 -44 -32z"/>
</g>
</svg>
